<svg width="81" height="18" fill="none" xmlns="http://www.w3.org/2000/svg"><path d="M31.003 3.133c1.855-.59 3.71-1.178 5.565-1.65v4.359h2.517V9.14h-2.517v3.415c0 .471.265 1.06.795 1.296.53.118 1.192 0 1.722-.118v3.298c-1.59.471-3.18.707-4.902.589-1.06-.118-1.987-.59-2.517-1.414-.663-.824-.795-1.884-.795-2.826V9.14h-1.988V5.842h1.988c.132-.942 0-1.885.132-2.71zm9.54-.942c1.855-.589 3.843-.589 5.697-.589 1.723.118 3.578.471 4.903 1.531 1.722 1.414 1.855 4.123 0 5.536-.53.353-1.06.589-1.59.824.795.236 1.59.59 2.252 1.178.928.942 1.06 2.356.795 3.534-.265 1.06-1.192 2.002-2.385 2.473-1.987.942-4.372.942-6.624.824-1.06-.117-2.12-.235-3.048-.47V13.38c1.723.471 3.71.824 5.432.471 1.193-.235 1.325-2.002.133-2.473-1.192-.471-2.517-.354-3.71-.118V7.844c.928 0 1.855.118 2.915 0 .53-.117 1.192-.353 1.325-.942.132-.471 0-.942-.265-1.295-.398-.354-1.06-.59-1.59-.59-1.457-.117-2.782.118-4.107.59-.133-1.06-.133-2.238-.133-3.416zm28.751-.354h10.997v3.534h-5.962v2.355c1.06 0 2.252-.117 3.312.118 1.59.471 2.782 1.65 3.047 3.062a5.088 5.088 0 01-.53 4.123c-.795 1.178-2.12 1.884-3.577 2.12-2.517.589-5.167.235-7.684-.354v-3.533c1.59.353 3.312.707 4.902.236 1.325-.354 1.59-2.12.53-2.945-.663-.471-1.458-.589-2.253-.589-.927 0-1.722.118-2.65.236-.132 0-.397.118-.53.235 0-.117.133-.235.133-.353.265-2.591.265-5.418.265-8.245zM21.2 14.087c-.398-.236-.398-.707-.53-1.178h7.816c0-.824 0-1.649-.132-2.473-.133-1.296-.663-2.71-1.855-3.651-1.06-.943-2.65-1.296-4.24-1.178-1.987 0-4.107.353-5.564 1.649-1.325 1.295-1.723 3.062-1.59 4.829.132 1.53.662 3.18 2.12 4.24 1.457 1.178 3.577 1.413 5.432 1.413 1.722 0 3.445-.118 5.034-.706v-2.945c-1.325.589-2.782.707-4.24.707-.662-.118-1.59-.236-2.252-.707zm0-5.418c.397-.589 1.59-.589 1.987 0s.397 1.178.397 1.885H20.67c.133-.707.133-1.414.53-1.885zm-8.613-1.885c-1.193-1.178-3.18-1.53-4.77-1.06-.927.236-1.59.825-2.252 1.531V.66H0v16.724h5.3v-2.12c.397.707.795 1.414 1.457 1.767 1.06.589 2.385.707 3.577.471 1.193-.235 2.253-.942 2.783-2.002.795-1.413 1.06-2.944 1.06-4.476 0-1.53-.398-3.062-1.59-4.24zm-4.77 6.714c-.397.589-1.457.589-1.855 0-.397-.59-.397-1.178-.397-1.885 0-.589 0-1.178.265-1.766 0-.354.265-.707.795-.825s1.06.118 1.325.471c.397.59.397 1.296.397 2.002 0 .707-.132 1.414-.53 2.003zm59.622-3.769c-.795-1.414-2.517-2.356-4.24-2.474-1.457-.117-2.915.118-4.107.943 0-.59.132-1.178.53-1.65.53-.824 1.457-1.177 2.385-1.295 1.59-.118 3.18.118 4.637.471V2.191c-1.855-.471-3.842-.471-5.697-.354-2.12.118-4.108.943-5.433 2.356-1.59 1.767-2.12 4.005-2.12 6.242 0 1.767.663 3.652 1.988 5.065 1.06 1.296 2.782 2.12 4.637 2.355 2.12.236 4.24-.117 5.962-1.295 1.193-.707 1.855-1.884 2.12-3.18 0-1.414 0-2.591-.662-3.651zm-5.035 3.886c-.53.825-2.12.943-2.782.236-.663-.589-.663-1.531-.53-2.238.132-.589.53-1.06 1.06-1.295.795-.236 1.855 0 2.252.588.663.825.663 1.885 0 2.71z" fill="#32448C"/></svg>