<svg width="129" height="14" fill="none" xmlns="http://www.w3.org/2000/svg"><g clip-path="url(#clip0)" fill="#32448C"><path d="M12.226 1.08h8.995l.234 2.718h-.533c-.2-1.135-.234-1.344-.7-1.792-.466-.448-1.366-.389-2.1-.389h-2.298c-.167 0-.3.03-.433.15-.1.12-.167.269-.133.418V5.65h1c.499 0 .999-.18 1.299-.508a2.335 2.335 0 00.533-1.613h.533v4.868h-.533c-.034-.806-.2-1.374-.534-1.732-.366-.358-.866-.538-1.399-.538h-.933v3.913c0 .12.067.269.167.358a.92.92 0 00.566.12h1.833c1.966 0 3.098-.568 3.398-2.837h.567l-.2 3.375h-9.33v-.538h.5c.234.03.467-.03.667-.15a.56.56 0 00.2-.418V2.155a.525.525 0 00-.167-.418.996.996 0 00-.533-.15h-.666V1.08z"/><path d="M21.055 4.395h4.065v.478c-.3-.03-.633.03-.933.12a.326.326 0 00-.2.298c0 .09.033.21.067.299l1.965 3.943 1.833-3.823c.033-.06.033-.12.033-.21 0-.358-.366-.567-1.133-.657v-.478h3.099v.478c-.267 0-.533.09-.733.24-.2.119-.333.298-.433.507l-2.732 5.675h-.433L22.588 5.44a.887.887 0 00-.4-.448c-.367-.09-.733-.15-1.1-.12l-.033-.478zm11.662-.209a3.427 3.427 0 012.532.986 3.42 3.42 0 011.033 2.568c.033.657-.133 1.285-.467 1.882-.3.508-.733.926-1.3 1.225a3.939 3.939 0 01-1.832.447c-.933 0-1.832-.358-2.465-.985-1.333-1.494-1.333-3.614 0-5.107.633-.658 1.532-1.016 2.499-1.016zm0 .508c-.6 0-1.133.269-1.466.717-.367.477-.567 1.254-.567 2.27 0 1.045.2 1.821.567 2.33.3.447.866.746 1.466.746s1.166-.269 1.499-.747c.4-.478.566-1.284.566-2.39 0-1.045-.2-1.761-.566-2.24-.333-.417-.9-.686-1.5-.686z"/><path d="M38.714.96v9.14c0 .12.033.209.133.299.134.09.3.149.5.149h.467v.537h-3.599v-.537h.433c.2 0 .4-.03.533-.15a.461.461 0 00.167-.447V2.334c.033-.179-.067-.388-.2-.507-.2-.15-.466-.24-.733-.24h-.666V1.05l2.965-.09zm3.799 3.316v4.42c-.034.448.133.896.466 1.255.3.298.733.447 1.166.447.6 0 1.133-.238 1.5-.657a2.271 2.271 0 00.633-1.612v-2.51a.67.67 0 00-.267-.537c-.333-.15-.7-.239-1.066-.209v-.508l2.632-.12v5.496c0 .21.067.419.233.598.2.15.433.209.666.209h.467v.478l-2.499.06-.166-1.315c-.367.418-.834.777-1.333 1.075-.4.24-.9.359-1.366.359-.633.03-1.233-.21-1.7-.597-.466-.389-.7-1.076-.7-2.031V5.679a.59.59 0 00-.332-.597c-.3-.12-.633-.18-.967-.15v-.507l2.633-.15zm7.928-2.599h.533v2.718h4.532v.658h-4.532v4.27c-.033.3.067.598.3.867.2.209.467.298.733.298.367 0 .7-.179.933-.448.3-.448.467-.955.433-1.493h.533c-.033.896-.266 1.553-.666 1.971-.4.418-1 .657-1.633.657a2.191 2.191 0 01-1.432-.448 1.56 1.56 0 01-.533-1.194v-4.48h-1.3v-.508c.533-.06 1-.299 1.333-.657.533-.657.8-1.434.766-2.21z"/><path d="M53.907 4.395l2.965-.09v5.735c0 .12.034.24.134.329.133.09.3.15.466.15h.533v.537h-3.631v-.538h.466c.2.03.366-.03.5-.15.133-.119.166-.268.166-.447V5.859a.644.644 0 00-.266-.597c-.2-.15-.5-.21-.767-.21h-.6v-.657h.034zm2.066-3.166c.233 0 .466.09.633.24a.777.777 0 01.266.567c0 .209-.1.418-.266.567-.367.3-.9.3-1.266 0a.77.77 0 010-1.135c.2-.149.4-.239.633-.239zm5.764 2.957a3.426 3.426 0 012.532.986 3.42 3.42 0 011.033 2.568c.033.657-.133 1.285-.467 1.882-.3.508-.732.926-1.299 1.225-.566.298-1.2.447-1.832.447-.933 0-1.833-.358-2.466-.985-1.333-1.494-1.333-3.614 0-5.107.633-.658 1.566-1.016 2.499-1.016zm0 .508c-.6 0-1.133.269-1.466.717-.367.477-.566 1.254-.566 2.27 0 1.045.2 1.821.566 2.33.3.447.866.746 1.466.746s1.166-.269 1.5-.747c.4-.478.566-1.284.566-2.39 0-1.045-.2-1.761-.567-2.24-.3-.417-.9-.686-1.5-.686z"/><path d="M65.135 4.395l2.466-.15c.1.479.2.986.233 1.464.3-.448.7-.806 1.166-1.075a3.38 3.38 0 011.533-.358c.433 0 .866.09 1.233.269.366.209.633.477.8.836.2.388.3.836.3 1.254v3.256a.571.571 0 00.166.508c.166.119.4.179.6.149h.2v.537H70.6v-.537h.066c.267.03.5-.03.733-.15.134-.119.233-.268.2-.447V7.083c.033-.478-.1-.956-.333-1.374-.3-.418-.8-.657-1.366-.627-.6 0-1.133.24-1.5.657a2.31 2.31 0 00-.599 1.703V9.92a.516.516 0 00.2.507c.166.12.4.18.633.15h.2v.537h-3.332v-.537h.2c.2 0 .433-.03.6-.15.133-.09.2-.209.2-.358V5.71c.033-.24-.067-.479-.267-.658-.2-.15-.466-.239-.733-.209h-.367v-.448zm18.392-2.479l.666-1.045h.533l.3 4.211h-.5c-.4-1.195-.866-2.09-1.4-2.628-.566-.627-1.432-1.016-2.365-1.046-.666 0-1.332.18-1.865.538-.567.388-1 .926-1.233 1.553-.333.836-.467 1.762-.433 2.658-.034.867.1 1.763.433 2.599a3.276 3.276 0 001.2 1.523 3.105 3.105 0 001.798.478 3.11 3.11 0 002.166-.687c.5-.478.8-1.135.766-1.792v-.986a.413.413 0 00-.2-.358 1.26 1.26 0 00-.666-.12h-1v-.507h4.532v.507h-.333a.95.95 0 00-.633.15c-.134.09-.2.239-.2.418v4.002h-.533c-.2-.627-.4-1.224-.6-1.792-.333.538-.833.986-1.433 1.314-.566.299-1.2.448-1.866.448a5.883 5.883 0 01-2.765-.687c-2.632-1.493-3.499-4.57-2-7.018a5.291 5.291 0 012.033-1.972c.767-.478 1.666-.717 2.6-.746.499 0 .965.06 1.432.239.566.119 1.1.388 1.566.746zm10.662 8.632l.133.209c0 .388-.5.328-.966.328-.367 0-1.066-.03-1.333-.179-.266-.15-.333-.358-.533-.806a4.542 4.542 0 01-1.333.956c-.433.179-.9.238-1.366.238-.633.03-1.233-.12-1.732-.448-.4-.268-.6-.687-.6-1.135 0-.687.466-1.284 1.366-1.732a10.77 10.77 0 013.632-.926V6.038c0-.359-.167-.687-.5-.926-.333-.269-.766-.388-1.233-.388-.4 0-.833.09-1.2.268-.233.12-.366.27-.366.389.034.12.1.239.2.328.133.15.2.329.233.508a.681.681 0 01-.233.538c-.166.149-.366.209-.6.209a.99.99 0 01-.666-.24.91.91 0 01-.266-.627c0-.477.3-.896.9-1.284a4.218 4.218 0 012.331-.597c.733-.03 1.433.15 2.033.508.433.298.7.776.7 1.254v3.614c0 .209.033.448.166.627.1.12.233.24.433.269.233.03.533.06.8.06zM91.423 7.53c-1.332.18-2.299.448-2.865.807-.433.298-.666.746-.633 1.224-.033.329.1.627.333.866.233.21.533.299.833.299.633 0 1.2-.239 1.633-.627a2.16 2.16 0 00.7-1.613V7.53z"/><path d="M93.922 4.395l2.132-.12c.1.478.2.956.234 1.404.3-.448.733-.806 1.2-1.105a2.903 2.903 0 011.332-.328c.466-.03.9.12 1.266.358.4.329.666.717.766 1.195.3-.448.7-.866 1.166-1.165a3.01 3.01 0 011.433-.388c.567-.03 1.133.15 1.533.537.466.538.699 1.165.666 1.852V9.95c-.033.15.033.3.167.418.2.12.433.18.666.15h.333v.537h-3.731v-.537h.366c.233.03.467-.03.666-.15a.56.56 0 00.2-.418V6.635c.034-.418-.1-.836-.399-1.165-.267-.269-.667-.418-1.067-.418-.333 0-.633.09-.899.24-.267.178-.5.417-.633.686-.2.329-.3.687-.333 1.075v2.868c0 .149.033.328.166.447.167.09.333.15.533.15h.5v.537h-3.798v-.537h.433c.2 0 .433-.03.6-.15.133-.09.2-.209.2-.358V6.964c.033-.508-.1-.986-.4-1.434-.233-.299-.633-.448-1.033-.448-.5-.03-.966.18-1.3.508-.433.478-.666 1.075-.633 1.702V9.95c-.033.15.034.3.167.418.2.12.433.18.666.15h.4v.537h-3.765v-.537h.567c.166 0 .366-.03.5-.15.1-.09.166-.238.166-.358V5.65c.033-.21-.067-.389-.2-.538a1.576 1.576 0 00-.833-.24v-.477z"/><path d="M107.016 4.395l2.665-.09v5.735c0 .12.034.24.134.329.133.09.3.15.466.15h.833v.537h-4.564v-.538h1.099c.2.03.367-.03.5-.15.133-.119.166-.268.166-.447V5.739a.641.641 0 00-.266-.597c-.2-.15-.5-.209-.766-.209h-.3l.033-.538zm1.766-3.166c.233 0 .466.09.633.24a.773.773 0 01.266.567.773.773 0 01-.266.567c-.367.3-.9.3-1.266 0a.77.77 0 010-1.135c.2-.149.4-.239.633-.239z"/><path d="M110.881 4.395l2.466-.15c.1.479.2.986.233 1.464.3-.448.7-.806 1.166-1.075a3.38 3.38 0 011.533-.358c.433 0 .866.09 1.233.269.366.209.633.477.799.836.2.388.3.836.3 1.254v3.256a.57.57 0 00.167.508.86.86 0 00.599.149h.234v.537h-3.299v-.537h.067c.266.03.499-.03.733-.15.133-.119.233-.268.2-.447V7.083c.033-.478-.1-.956-.334-1.374-.299-.418-.799-.657-1.366-.627-.599 0-1.132.24-1.499.657a2.312 2.312 0 00-.6 1.703V9.92a.518.518 0 00.2.507c.167.12.4.18.6.15h.2v.537h-3.632v-.537h.5c.2 0 .433-.03.6-.15.133-.09.2-.209.2-.358V5.71c.033-.24-.067-.479-.267-.658-.2-.15-.466-.239-.733-.209h-.4l.1-.448zm14.427.359c.533-.478 1.999-1.195 2.499-1.195.267-.03.533.03.766.18.167.149-.133.507-.133.716 0 .15-.067.329-.167.448-.1.12-.266.18-.399.18-.3 0-.5-.18-.6-.509-.033-.149-.1-.209-.2-.209a4.06 4.06 0 00-1.299.687c.199.21.366.478.466.747.1.21.133.448.133.657 0 .388-.1.777-.333 1.105a2.654 2.654 0 01-1.099.836 3.247 3.247 0 01-1.5.359h-.866c-.433-.03-.833.03-1.233.18-.2.119-.3.298-.3.507 0 .18.1.328.234.418.299.12.599.18.932.15l1.966-.03c1 0 1.7.149 2.133.447.433.27.699.747.666 1.225 0 .567-.267 1.075-.733 1.434-.7.537-1.733.836-3.099.836-1.132 0-1.999-.18-2.532-.568a1.24 1.24 0 01-.666-.985c0-.299.166-.568.4-.777a3.24 3.24 0 011.399-.508c-.433-.09-.833-.238-1.199-.507-.267-.21-.4-.508-.4-.836 0-.3.133-.568.333-.807.3-.269.7-.478 1.099-.597a2.532 2.532 0 01-.999-.807 1.867 1.867 0 01-.333-1.075c0-.627.3-1.224.833-1.613a3.567 3.567 0 012.199-.657c.366 0 .733.06 1.066.15.333.09.666.238.966.418zm-1.633 6.332c-.966 0-1.665.119-2.099.358-.366.18-.599.508-.633.866 0 .299.167.598.467.747.533.269 1.166.418 1.766.358.699.03 1.432-.09 2.065-.418.467-.269.7-.567.7-.896a.777.777 0 00-.2-.538 1.32 1.32 0 00-.666-.388c-.467-.06-.933-.12-1.4-.09zm-.466-6.452c-.433 0-.866.15-1.166.478-.333.358-.5.836-.467 1.314-.033.508.134.986.467 1.404.533.567 1.533.657 2.166.15.066-.06.133-.09.166-.15.333-.388.5-.896.467-1.374a1.757 1.757 0 00-.467-1.314c-.266-.329-.7-.508-1.166-.508z"/><path d="M128.073 3.619c.234 0 .467.09.633.239.167.15.267.358.267.567 0 .21-.1.418-.267.568a1.006 1.006 0 01-1.266 0 .77.77 0 010-1.135c.2-.18.4-.24.633-.24zM9.061 11.145h-.167v-.239h.234c.033.03.066.06.066.09.034.09-.033.12-.133.15 0-.03 0-.03 0 0zm.3-.12c0-.059-.033-.149-.1-.178-.067-.06-.167-.06-.267-.06h-.266v.776h.166v-.298h.134l.166.298h.167l-.2-.298c.167-.06.233-.15.2-.24zm-.3.748c-.367 0-.666-.27-.666-.598 0-.328.3-.597.666-.597.366 0 .666.269.666.597 0 .329-.3.598-.666.598zm0-1.345c-.466 0-.833.329-.833.747s.367.747.833.747c.466 0 .833-.329.833-.747s-.4-.747-.833-.747zM.298.751C4.263-1.16 9.394.841 9.76 5.68 2.43 6.187 1.53 3.23.298.751z"/><path d="M.298 11.085c3.965 1.912 9.063-.119 9.462-4.928-7.33-.537-8.23 2.45-9.462 4.928z"/><path d="M8.394 2.245C6.495.035 3.03-.622.298.752c1.1 2.21 1.933 4.838 7.363 4.987a4.97 4.97 0 00.733-3.494zM1.631 8.637c.166 0 .3.03.466.03 2.133 0 4.098-.956 5.298-2.54-3.265.15-4.798 1.195-5.764 2.51z"/></g></svg>