<svg width="77" height="17" fill="none" xmlns="http://www.w3.org/2000/svg"><path d="M9.464.045C4.251.045.024 3.834.024 8.523c0 .838.14 1.66.416 2.453.173-.218.347-.435.503-.652.658-.87 1.299-1.74 1.94-2.624l.467-.668c.156-.217.312-.45.45-.668.312-.45.607-.9.884-1.35.138-.233.277-.45.433-.684.156-.232.277-.45.415-.683.139-.233.278-.465.399-.683l.38-.699.035-.046c.208-.373.71-.528 1.144-.357.311.155.502.45.485.776 0 .404-.087.823-.122 1.227-.034.403-.052.823-.086 1.242a59.432 59.432 0 00-.052 2.484c0 .823.052 1.646.138 2.438.052.388.122.776.208 1.164.07.342.19.683.364.994.052.093.121.186.208.264.052.03.017.015.052.015h.034l.035-.015h.017l.052-.016c.018-.015.052-.03.07-.046.138-.093.26-.202.38-.326.278-.295.538-.59.763-.916.242-.327.467-.684.693-1.04.45-.715.866-1.445 1.264-2.19.19-.373.398-.745.589-1.118.19-.372.38-.76.554-1.133.173-.388.676-.575 1.109-.42a.767.767 0 01.52.575c0 .093.016.217.034.342l.035.357c.034.233.069.465.12.698.087.466.191.932.33 1.382.138.45.311.9.52 1.335.207.435.467.839.796 1.212.07.093.052.217-.035.279-.086.062-.207.062-.277 0a6.84 6.84 0 01-1.143-1.149c-.329-.42-.606-.87-.866-1.32-.173-.31-.312-.62-.467-.931-.104.186-.191.372-.295.543-.416.761-.831 1.522-1.316 2.283-.225.372-.468.745-.745 1.117a9.815 9.815 0 01-.918 1.103c-.19.202-.416.373-.64.543-.07.047-.14.093-.226.124l-.156.078-.086.031h-.018l-.052.016h-.034l-.07.015c-.052.016-.086.031-.138.031l-.312.047a1.961 1.961 0 01-.676-.078 1.954 1.954 0 01-.571-.295 2.456 2.456 0 01-.641-.73 5.002 5.002 0 01-.52-1.381 11.673 11.673 0 01-.225-1.32 26.033 26.033 0 01-.156-2.593V6.333c-.173.295-.346.59-.52.87-.138.233-.276.466-.432.699l-.433.698a70.693 70.693 0 01-1.836 2.764c-.399.59-.814 1.18-1.23 1.754 2.858 3.913 8.712 5 13.077 2.438s5.577-7.81 2.72-11.722C15.612 1.489 12.65.045 9.463.045zM27.08 11.566v-5.62h-.157l-2.009 5.62h-.502l-2.01-5.62h-.155v5.62h-.832v-6.21h1.473l1.784 4.937 1.749-4.938h1.49v6.226h-.832v-.015zm2.043-5.403v-.808h.9v.808h-.9zm.017 5.403V6.768h.883v4.798h-.883zm6.235-1.569c0 .932-.398 1.646-2.13 1.646-2.182 0-2.304-1.118-2.304-2.484 0-1.366.122-2.484 2.304-2.484 1.732 0 2.13.714 2.13 1.646h-.831c0-.761-.294-1.134-1.299-1.134-1.351 0-1.42.652-1.42 1.957 0 1.304.069 1.956 1.42 1.956 1.005 0 1.299-.373 1.299-1.134l.831.031zM37.09 7.28c.416-.232.953-.543 1.455-.558.104-.016.208-.016.312-.016.138 0 .26 0 .415.016l-.069.574c-.139-.015-.26-.015-.381-.015-.104 0-.208 0-.33.015-.467.016-.97.326-1.333.512v3.773h-.883V6.768h.693l.12.513zm7.136 1.895c0 1.366-.122 2.484-2.339 2.484S39.55 10.54 39.55 9.175c0-1.367.121-2.485 2.338-2.485s2.339 1.118 2.339 2.485zm-3.794 0c0 1.304.07 1.956 1.455 1.956 1.386 0 1.455-.637 1.455-1.956 0-1.32-.069-1.957-1.455-1.957-1.385 0-1.455.637-1.455 1.957zm5.405 3.509c.329.03.762.046 1.247.046 1.35 0 1.524-.326 1.541-1.599-.398.202-.952.435-1.524.45-1.957.031-2.078-.916-2.078-2.406 0-1.49.104-2.485 1.992-2.485.64 0 1.23.264 1.697.528l.087-.434h.693v4.254c0 1.723-.433 2.251-2.2 2.251-.52 0-1.04-.046-1.542-.108l.087-.497zm2.788-5.03c-.38-.218-.866-.436-1.333-.436-1.3 0-1.386.652-1.386 1.957 0 1.273.087 1.878 1.386 1.878.467 0 .97-.233 1.334-.403V7.653zm5.665 3.912l-.087-.435c-.433.248-1.005.528-1.628.528-1.957.03-2.079-.963-2.079-2.484 0-1.522.104-2.485 2.044-2.485.641 0 1.213.264 1.646.497l.086-.419h.693v4.798h-.675zm-.174-3.944c-.363-.186-.866-.404-1.333-.404-1.3 0-1.386.652-1.386 1.957 0 1.304.087 1.956 1.386 1.956.467 0 .952-.233 1.333-.435V7.622zm2.719-.435c.399-.217.935-.481 1.507-.497.9-.03 1.368.187 1.593.528.416-.233.97-.512 1.577-.528 1.836-.046 1.94.792 1.94 1.957v2.919h-.884V8.693c0-.993-.07-1.475-1.264-1.475-.433 0-.884.233-1.247.435.086.342.121.699.104 1.056v2.872h-.762V8.693c0-.993-.07-1.475-1.265-1.475-.416 0-.866.233-1.212.404v3.944h-.883V6.768h.692l.104.42zm7.725-1.024v-.808h.9v.808h-.9zm.017 5.403V6.768h.884v4.798h-.884zm2.755-4.379c.433-.217 1.004-.48 1.628-.496 1.957-.047 2.078.791 2.078 1.956v2.919h-.883V8.693c0-.993-.087-1.475-1.386-1.475-.467 0-.97.233-1.333.42v3.943h-.884V6.768h.693l.087.42zm5.421 5.497c.329.03.762.046 1.247.046 1.35 0 1.524-.326 1.541-1.599-.398.202-.952.435-1.524.45-1.957.031-2.078-.916-2.078-2.406 0-1.49.104-2.485 1.991-2.485.641 0 1.23.264 1.698.528l.086-.434h.693v4.254c0 1.723-.433 2.251-2.2 2.251a12.6 12.6 0 01-1.54-.108l.086-.497zm2.77-5.03c-.38-.218-.865-.436-1.333-.436-1.299 0-1.385.652-1.385 1.957 0 1.273.086 1.878 1.385 1.878.468 0 .97-.233 1.334-.403V7.653z" fill="#32448C"/></svg>