<svg width="92" height="36" fill="none" xmlns="http://www.w3.org/2000/svg"><path d="M72.508 35.587c-7.617 0-13.813-5.544-13.813-12.359S64.89 10.87 72.508 10.87c7.616 0 13.813 5.544 13.813 12.36 0 6.814-6.197 12.358-13.813 12.358zm0-23.197c-6.678 0-12.122 4.863-12.122 10.846 0 5.982 5.435 10.846 12.122 10.846 6.686 0 12.122-4.864 12.122-10.846 0-5.983-5.444-10.846-12.122-10.846z" fill="#32448C"/><path d="M68.984 8.139c0 .03-.042.038-.05.007C68.552 6.664 65.111.47 64.756.59c-.406.129.338 6.49.88 8.366.008.03-.035.037-.052.015-2.4-3.427-5.164-3.358-5.697-3.29-.034.007-.034.045-.008.053 3.313 1.527 4.91 5.892 5.063 6.323.009.015.026.022.05.015 1.844-.998 3.957-1.634 6.223-1.815.016 0 .033-.015.025-.03-.102-.386-1.057-4.395.778-7.178.017-.023-.009-.053-.034-.046-.474.144-2.9 1.437-3.001 5.136zm2.855 6.967c.577-1.37 2.832-1.882 5.033-1.14 2.2.742 3.518 2.457 2.94 3.829-.577 1.37-2.832 1.882-5.032 1.14-2.201-.742-3.519-2.457-2.941-3.829zM6.124 26.503v-6.247h1.885c.668 0 1.285.143 1.623.37.566.386.719 1.052.719 1.437 0 .583-.22.938-.44 1.195-.186.212-.66.409-.98.522.43.56 1.732 2.806 1.732 2.806H9.125s-1.446-2.616-1.59-2.616h-.228v2.533H6.124zm1.783-5.158h-.6v1.43h.6c.381 0 .592-.061.804-.19.21-.128.32-.302.32-.522 0-.219-.1-.393-.312-.521-.211-.13-.423-.197-.812-.197zM.671 26.503v-6.247h1.885c.668 0 1.285.143 1.624.37.566.386.718 1.052.718 1.437 0 .93-.676 1.581-1.319 1.733-.71.166-1.724.174-1.724.174v2.533H.67zm1.793-5.158h-.6v1.43h.6c.38 0 .591-.061.803-.19.21-.128.32-.302.32-.522 0-.219-.1-.393-.312-.521-.211-.13-.423-.197-.811-.197zm59.976 5.242v-6.248h1.97c.668 0 1.285.144 1.623.37.567.386.719 1.052.719 1.438 0 .582-.22.938-.44 1.195-.186.212-.66.408-.98.521-.423.144-1.53.114-1.53.114l-.009 2.617h-1.352v-.008zm1.877-5.159h-.516v1.43h.516c.38 0 .592-.061.803-.19.212-.128.322-.302.322-.521 0-.22-.102-.394-.313-.522-.212-.136-.423-.197-.812-.197zm-38.632-.31l-.921.81c-.558-.462-1.429-.863-2.165-.863-.33 0-.642.053-.93.159-.287.106-.549.25-.768.446-.22.19-.39.431-.516.726-.127.295-.195.62-.195.968 0 .696.22 1.256.66 1.68.44.43 1.022.642 1.741.642a2.4 2.4 0 001.454-.461c.237-.174.524-.325.65-.825l-2.087-.007-.017-1.074h3.61c0 1.165-.237 1.732-.905 2.413-.66.68-1.564 1.02-2.713 1.02-.55 0-1.057-.082-1.53-.256-.474-.174-.88-.401-1.218-.704a3.165 3.165 0 01-1.082-2.42c0-.65.17-1.225.499-1.732a3.346 3.346 0 011.378-1.195 4.41 4.41 0 011.936-.424 4.62 4.62 0 011.547.242c.448.16 1.26.62 1.572.855zm8.546-.862l1.091 6.247h-1.336l-.634-3.963-1.547 3.963H30.58L29 22.487l-.617 4.016h-1.319l1.107-6.247h1.226l1.81 4.636 1.8-4.636h1.225zm56.63.234l.33 1.891h-.406l-.195-1.203-.465 1.203h-.372l-.473-1.218-.186 1.218h-.397l.33-1.89h.371l.541 1.406.541-1.407h.38zm-51.684-.31h1.209l2.907 6.407H41.78l-.591-1.302h-2.79l-.592 1.302h-1.454l2.824-6.407zm1.597 3.91l-.482-1.02a19.19 19.19 0 01-.524-1.362h-.033a30.844 30.844 0 01-.49 1.361l-.474 1.014h2.003v.008zm33.704-3.91h1.218l2.907 6.407H77.09l-.591-1.302h-2.79l-.592 1.302h-1.454l2.815-6.407zm1.598 3.91l-.482-1.02a19.19 19.19 0 01-.524-1.362h-.034a30.575 30.575 0 01-.49 1.361l-.474 1.014h2.004v.008zm-61.651-3.91h1.209l2.908 6.407h-1.513l-.592-1.302h-2.79l-.591 1.302h-1.454l2.823-6.407zm1.59 3.91l-.482-1.02a19.13 19.13 0 01-.525-1.362h-.033a30.844 30.844 0 01-.49 1.361l-.474 1.014h2.003v.008zm27.11-2.692v-1.203H47.3v1.203h-1.394v5.173H44.51v-5.173h-1.387zm44.185-.56v-.363h1.26v.363h-.423v1.566h-.422v-1.566h-.415zm-39.054 5.794v-6.369h1.386v6.369h-1.386zm19.282 0v-6.293h1.395v5.128h1.935v1.165h-3.33zm12.181-.053v-2.753L77.59 20.3h1.285l1.462 2.458h.026l1.462-2.458h1.285l-2.164 3.525v2.753H79.72zm-25.073-.87c-.71.023-1.293-.22-1.733-.65-.448-.432-.667-.991-.667-1.68 0-.68.22-1.24.667-1.671.449-.431 1.023-.65 1.733-.65 1.573 0 2.207.93 2.207.93l.862-.68a3.514 3.514 0 00-1.107-.87c-.575-.296-1.234-.44-1.953-.44-.719 0-1.378.144-1.961.44a3.412 3.412 0 00-1.37 1.21 3.158 3.158 0 00-.498 1.732l-.017.007c0 .635.169 1.218.498 1.74.33.514.786.922 1.37 1.217.583.295 1.234.44 1.961.44.719 0 1.37-.152 1.953-.447.44-.222.822-.523 1.124-.885l-.87-.772s-.83.991-2.199 1.03z" fill="#32448C"/></svg>