<svg width="91" height="44" fill="none" xmlns="http://www.w3.org/2000/svg"><path fill-rule="evenodd" clip-rule="evenodd" d="M90.558 13.611c-.028 7.45-6.632 13.344-14.769 13.408-8.308.065-14.994-5.877-15.148-13.06C60.487 6.64 66.983.342 75.373.277c8.444-.073 15.185 5.902 15.185 13.335zM76.06 18.094c0 1.694-.009 3.389.01 5.083.008.803.534 1.102 1.286.713 2.751-1.4 5.497-2.811 8.236-4.231.77-.397 1.16-.997 1.16-1.832-.019-2.919-.01-5.845-.01-8.763 0-1.144-.48-1.42-1.621-.917-2.628 1.16-5.246 2.327-7.874 3.478-.815.357-1.196.892-1.187 1.703.018 1.588 0 3.177 0 4.766zm-.95.073c0-1.63-.028-3.259.008-4.888.018-.81-.371-1.305-1.15-1.646-2.7-1.175-5.382-2.367-8.073-3.55-1.033-.454-1.468-.22-1.468.802-.009 2.797.018 5.585-.018 8.382-.018 1.249.553 2.116 1.785 2.724 2.519 1.248 5.001 2.562 7.502 3.843.888.454 1.404.202 1.413-.706.01-1.653 0-3.307 0-4.96zm.552-7.02c.326-.106.67-.187.987-.325 2.79-1.199 5.575-2.41 8.354-3.631.226-.097.39-.324.58-.486-.2-.13-.38-.309-.598-.398-2.537-.924-5.083-1.824-7.62-2.764-1.16-.43-2.283-.438-3.434-.008-2.491.908-4.992 1.8-7.484 2.724-.244.089-.407.34-.616.518.19.163.354.373.59.479a1045.86 1045.86 0 008.28 3.607c.3.122.625.187.96.284z" fill="#32448C"/><path fill-rule="evenodd" clip-rule="evenodd" d="M41.415 18.654c1.005-.851 1.92-1.638 2.835-2.416 5.3-4.507 10.592-9.022 15.901-13.513.471-.398.988-.82 1.576-1.03.816-.3 1.776.114 2.193.778.435.681.29 1.557-.39 2.148a1127.971 1127.971 0 01-4.865 4.175l-9.84 8.44c-2.527 2.164-5.046 4.344-7.6 6.484-.4.333-.907.681-1.414.77-1.386.244-2.32-.47-2.31-1.742.027-5.359.081-10.717.126-16.076.01-1.224.028-2.456.064-3.68.027-.68.453-1.16 1.15-1.386.68-.22 1.36-.17 1.94.251.561.405.697.965.697 1.589-.045 4.913-.072 9.833-.109 14.746 0 .113.028.227.046.462zm-34.447.024c2.79-2.383 5.49-4.685 8.19-6.996 3.633-3.096 7.266-6.185 10.89-9.29.608-.519 1.269-.908 2.148-.746.715.13 1.25.495 1.468 1.152.226.713.027 1.337-.571 1.848a1399.789 1399.789 0 01-4.005 3.42c-3.09 2.652-6.188 5.302-9.278 7.953-3.071 2.635-6.151 5.261-9.223 7.904-.707.608-1.513.787-2.41.47-.915-.324-1.16-1.037-1.15-1.864.054-6.08.1-12.152.154-18.232 0-.446.027-.891.072-1.33.109-.899.797-1.45 1.794-1.467 1.078-.024 1.821.47 1.93 1.387.081.664.009 1.345.009 2.026-.01 3.705-.018 7.418-.018 11.122v2.643zm65.125 20.567v-7.231c0-.908 0-1.824.009-2.732.009-.82.498-1.305 1.295-1.297.78.008 1.26.51 1.26 1.321-.027 4.24-.072 8.471-.1 12.711 0 .6-.145 1.094-.842 1.321-.68.22-1.187-.024-1.65-.446-3.85-3.526-7.7-7.06-11.551-10.587a10.303 10.303 0 00-.48-.397c-.027.325-.055.535-.055.746l-.108 9.339c-.01.835-.463 1.313-1.233 1.321-.833.008-1.313-.47-1.304-1.346.036-4.296.072-8.6.154-12.897.009-.349.317-.795.634-1.022.462-.324 1.051-.21 1.504.122.362.268.68.584 1.006.892l10.854 9.955c.108.105.235.186.353.283.09-.024.172-.04.254-.056zm-29.156-5.4c2.002-1.79 3.923-3.517 5.853-5.244.163-.146.335-.3.516-.438.48-.365 1.006-.446 1.586-.219.562.219.707.657.707 1.151.009.851.009 1.695 0 2.546-.036 3.429-.082 6.866-.127 10.295-.01.9-.517 1.346-1.413 1.28-.753-.056-1.133-.486-1.133-1.272.009-3.113.027-6.234.036-9.347v-.786l-.752.64c-1.386 1.24-2.754 2.505-4.159 3.73-.724.632-1.522.6-2.237-.05a287.715 287.715 0 01-4.114-3.777c-.208-.194-.335-.454-.498-.689l-.353.17v1.808l-.028 8.074c0 .56-.136 1.07-.779 1.313-.915.34-1.785-.186-1.794-1.118-.009-1.443.028-2.878.037-4.321.018-2.756.018-5.513.027-8.269 0-.13 0-.251.009-.38.045-.552.28-.982.897-1.184.589-.187 1.078-.025 1.486.356 1.476 1.346 2.935 2.7 4.403 4.054.589.559 1.187 1.094 1.83 1.678zm-12.974 4.58c-2.238 0-4.412.05-6.587-.023-.96-.033-1.63.21-2.283.826-1.214 1.127-2.51 2.19-3.787 3.26-.236.194-.526.38-.834.453-.616.146-1.196.04-1.531-.519-.317-.535-.181-1.03.29-1.443a439.02 439.02 0 013.017-2.594c3.896-3.34 7.792-6.671 11.688-10.011.172-.147.354-.285.543-.414.453-.316.943-.348 1.468-.137.526.21.698.624.698 1.086-.037 4.296-.073 8.6-.127 12.897-.01.86-.453 1.281-1.287 1.273-.842 0-1.277-.43-1.286-1.28.018-1.07.018-2.15.018-3.373zm.009-2.212v-4.548c-1.794 1.54-3.47 2.991-5.273 4.548h5.273zm60.495 2.026c0 .738.063 1.484-.027 2.222-.045.389-.263.843-.58 1.094-2.69 2.132-5.799 2.643-9.115 1.524-3.288-1.11-5.137-3.356-5.535-6.493-.535-4.216 2.763-8.034 7.556-8.585 2.69-.308 5.11.34 7.14 2.01.77.633.878 1.29.307 1.816-.616.576-1.34.543-2.12-.09-1.758-1.426-3.796-1.888-6.043-1.24-2.265.657-3.697 2.076-4.204 4.175-.535 2.206.516 4.386 2.7 5.732 1.939 1.191 4.675 1.208 6.704.057.463-.26.698-.544.68-1.062-.036-.827.018-1.654.054-2.473.028-.754.472-1.135 1.287-1.135.734 0 1.232.422 1.268 1.11.028.447.01.893.01 1.338h-.082zm-75.091-.048c0 .34-.045.68.009 1.013.181 1.062-.399 1.735-1.296 2.343-5.21 3.55-13.01.713-13.934-5.083-.698-4.37 2.328-8.196 7.194-8.941 2.835-.438 5.4.243 7.538 2.026.625.519.715 1.273.235 1.76-.516.518-1.422.502-2.084-.041-1.875-1.557-4.05-1.986-6.432-1.168-2.456.843-3.86 2.546-3.996 4.88-.208 3.722 3.515 6.3 7.121 5.756.3-.048.607-.089.897-.178 2.02-.592 2.184-.803 2.193-2.66 0-.51-.01-1.02.018-1.523.045-.69.544-1.127 1.26-1.127.724-.008 1.268.47 1.304 1.167.018.292-.027.592-.027.892 0 .284.009.584 0 .884 0 0 .009 0 0 0zm19.969-25.504c0 2.456.01 4.913 0 7.369 0 .997-.045 1.986-.063 2.983-.018.956-.752 1.654-1.794 1.702-1.015.049-1.993-.673-2.002-1.605-.027-2.27.027-4.531.045-6.801.018-1.549.045-3.089.054-4.637.027-2.708.091-5.423.064-8.13-.018-1.338.978-1.914 1.93-1.93 1.141-.025 1.902.754 1.902 1.953-.009 2.586-.045 5.172-.063 7.75v1.338c-.027.008-.045.008-.073.008zm20.539 22.934c0 2.14.01 4.272 0 6.412 0 .795-.48 1.257-1.25 1.265-.788.008-1.305-.486-1.296-1.297.036-4.32.082-8.633.127-12.954.01-.722.507-1.184 1.25-1.184.798 0 1.287.446 1.296 1.224.01 2.18 0 4.362 0 6.542-.036-.008-.082-.008-.127-.008zm29.6-24.06c-.163.438-.3.98-.58 1.45-.136.228-.562.455-.843.43-.262-.016-.607-.316-.715-.567-.363-.835-.245-1.678.28-2.424.173-.251.59-.527.87-.502.272.024.571.373.743.64.163.252.154.576.245.973zm-5.21 7.952c-.163.406-.299.973-.607 1.451-.407.633-1.214.527-1.513-.154-.38-.883-.226-1.759.326-2.537.163-.227.58-.462.843-.438.263.025.562.34.707.6.154.26.154.6.244 1.078zm2.927-4.004c-.2.535-.335 1.094-.616 1.589-.127.227-.562.462-.834.446-.254-.017-.589-.333-.707-.576-.344-.762-.262-1.556.182-2.254.19-.308.652-.689.96-.664.299.024.589.494.806.81.118.162.073.414.1.616.036.008.073.025.109.033zm-9.803 4.62c-.064.268-.064.568-.2.795-.154.251-.426.608-.67.624-.3.016-.752-.194-.915-.438-.544-.786-.68-1.661-.308-2.553.28-.665 1.069-.778 1.476-.162.336.51.49 1.118.716 1.678a.38.38 0 01-.1.056zm-2.465-6.071c.163-.957.48-1.492 1.024-1.516.516-.033 1.105.494 1.223 1.297.081.567.063 1.191-.109 1.735-.226.705-1.014.786-1.431.162-.335-.511-.48-1.119-.707-1.678zm-2.564-1.654c-.118.835-.444 1.386-.924 1.435-.544.057-1.033-.373-1.178-1.208a3.698 3.698 0 01.073-1.605c.18-.632.95-.738 1.331-.178.336.47.48 1.037.698 1.556zm0 5.407c-.118.438-.154.802-.317 1.119-.254.494-.852.527-1.26.113-.561-.559-.751-1.97-.362-2.634.326-.56 1.024-.592 1.386-.008.281.437.39.964.553 1.41zm7.411-9.695c-.68-.203-1.322-.3-1.866-.56-.834-.413-.852-1.24-.109-1.783.933-.69 3.008-.673 3.932.024.67.503.68 1.313-.072 1.703-.562.3-1.241.421-1.885.616z" fill="#32448C"/></svg>