<svg width="92" height="18" fill="none" xmlns="http://www.w3.org/2000/svg"><path d="M14.299 5.134a.765.765 0 01.197-.141 1.07 1.07 0 01.381-.13c-.013.024-.026.053-.059.071-.151.094-.315.17-.447.282a.662.662 0 01-.112.065c.007-.053 0-.106.04-.147zm-.204-.259c.02-.106.007-.211.026-.317.007-.006.027-.018.033-.024.06.124.046.253.053.382.006.16-.033.312-.066.471-.02 0-.04-.006-.066-.006a1.627 1.627 0 01.02-.506zm-.112-1.646c.105-.024.21-.018.316-.024.105-.006.204-.07.315-.053-.079.1-.223.135-.355.147a.907.907 0 01-.282.006c.006-.024.006-.053.006-.076zm-.289-.189c0-.106.007-.217.026-.323.02-.006.046-.006.066-.012-.006.2.02.406.007.606-.007.07-.027.165-.112.182-.007-.147.013-.3.013-.453zm-5.01-1.264a.196.196 0 01.073-.07c-.085.464-.066.975.21 1.393.014.024.02.053.027.082-.23-.135-.329-.388-.388-.623-.04-.259-.053-.541.079-.782zm-.486.123c-.078-.076-.19-.141-.23-.247a.81.81 0 01.217.165c.086.082.191.153.243.253-.098-.024-.157-.106-.23-.17zm.198.67c-.014-.04 0-.087.013-.129.059.1.092.212.151.318.072.13.125.27.243.37.19.165.329.371.44.583-.44-.253-.769-.677-.847-1.141zM3.36 3.959c.06.035.119.082.165.13.072.07.177.11.256.182a.57.57 0 01-.42-.312zm.48.512c-.144-.006-.296 0-.447-.012.086-.077.21-.047.322-.065.171-.023.342-.012.513.006.026.006.053.018.079.023a1.141 1.141 0 01-.467.048zm-.835 1.57c-.118-.024-.17-.135-.21-.224.099.047.164.13.21.224zm.02.359c-.151-.165-.355-.324-.605-.336-.112-.011-.21.036-.309.071.06-.118.217-.147.349-.13.177.024.335.112.48.2.13.1.243.236.289.389-.086-.053-.145-.13-.204-.194zm11.596 10.08c.184.03.283.19.335.336-.098-.017-.204-.04-.263-.117-.04-.071-.085-.142-.072-.218zm.178-10.192a2.47 2.47 0 00.157-.482c.007-.041.033-.077.053-.112.026.106-.007.218-.013.33-.014.146-.053.3-.165.411-.105.118-.243.188-.387.259-.165.088-.323.2-.513.247a1.045 1.045 0 01-.487.006c.053-.06.145-.07.217-.094.197-.065.401-.124.598-.189.217-.07.434-.182.54-.376zm-.914.218c.19-.071.407-.036.611-.065-.072.082-.19.106-.296.141a2.664 2.664 0 01-.48.094.331.331 0 01.165-.17zm.026-1.37c.007-.042.046-.072.079-.1 0 .164-.007.329.006.493 0 .112.007.23-.02.341-.012 0-.032.006-.045.006-.053-.24-.092-.494-.02-.74zm-.17.181c.019-.04.052-.076.078-.105-.007.105-.033.211-.033.317 0 .212.013.43 0 .641a.673.673 0 01-.329.524.875.875 0 01-.46.1c.19-.13.395-.259.52-.453.184-.318.085-.694.223-1.024zm-.343.636c.046-.089.066-.183.138-.253.027.106-.013.206-.033.312-.059.294-.302.529-.591.664a.835.835 0 01-.296.077l-.026-.024a1.66 1.66 0 00.808-.776zm-1.499.753c.06-.083.093-.183.165-.26a.905.905 0 01-.066.371c-.04.089-.164.094-.256.1.046-.07.105-.14.157-.212zm-1.051-.153c-.119.017-.237.053-.362.04.105-.058.25-.11.362-.04zm-.743-.077c-.119.053-.21.153-.335.194.052-.223.236-.411.46-.517.204-.106.434-.153.664-.183-.237.2-.507.365-.79.506zm-.132.759c-.098.03-.19.053-.289.07a.836.836 0 01.447-.629c-.072.106-.158.212-.17.335 0 .077.012.153.012.224zm2.156-1.788a3.019 3.019 0 01-1.018.306c-.23.035-.467.053-.684.135-.21.07-.394.194-.546.335a.946.946 0 00-.256.377c-.046.117-.079.24-.118.358-.04.13-.033.271-.086.394-.052.118-.177.189-.289.253-.02-.105.026-.205.06-.305.065-.212.157-.418.242-.624.08-.188.086-.4.224-.565.21-.247.532-.394.854-.488.23-.047.467-.053.697-.064.23-.03.454-.07.677-.136.145-.035.283-.106.44-.123-.052.059-.124.1-.197.147zm-1.656 8.723c.085.052.184.146.29.223.045.035.367.394.394.453.092.182.21.359.328.53.073.105.197.223.276.323a.438.438 0 01-.118-.03.861.861 0 01-.335-.182c-.099-.082-.158-.206-.243-.306-.145-.176-.31-.341-.46-.512a2.02 2.02 0 01-.441-.623c-.007-.024-.007-.053-.007-.082.112.064.204.14.316.206zm-3.326 1.117c-.276.13-.52.306-.763.47a1.48 1.48 0 01-.776.253c-.078 0-.164 0-.23-.047a.06.06 0 00.014-.035c.124-.023.25-.012.368-.053.276-.088.506-.253.73-.423.295-.218.565-.477.906-.642.08-.035.46-.14.586-.135.15.006.295 0 .446 0-.013.041-.046.07-.092.094a2.937 2.937 0 01-.585.242c-.216.076-.407.182-.604.276zm.105.17a.88.88 0 01-.355.583.623.623 0 01-.316.153c-.236.07-.506.017-.723-.088.132-.065.283-.053.421-.112a2.01 2.01 0 00.4-.23c.132-.088.277-.17.422-.253.04-.029.098-.04.15-.053zm-.703-1.534a.205.205 0 01-.007.123c-.066.141-.243.353-.302.43.032-.142.085-.318.078-.524a5.8 5.8 0 00-.02-.335.594.594 0 01.132-.418c.013.13.04.559.119.723zm.447-1.306c-.014-.118-.007-.177-.02-.294.02.1.046.135.079.229.085.27.282.506.295.794.007.106-.065.23-.138.306-.052-.065-.072-.17-.092-.247-.04-.136-.046-.288-.072-.424a2.293 2.293 0 01-.052-.364zM8.35 13.75c.032.13.006.182-.086.217-.131.053-.296.012-.434-.023.007-.018.217-.135.27-.212.04-.059.072-.194.085-.235.145.17.165.253.165.253zm-.474-.635c.08.123.132.317.099.458-.02.1-.151.147-.151.147a.849.849 0 01-.322.042c-.027 0 .098-.153.105-.36a1.14 1.14 0 00-.053-.364c-.072-.206-.164-.406-.243-.606-.053-.14-.125-.27-.17-.417-.047-.136-.1-.27-.12-.418-.012-.194.04-.382.106-.565.02-.058.04-.123.099-.158-.02.147-.08.282-.086.43a1.72 1.72 0 00.033.517c.072.24.184.464.322.682.06.088.381.612.381.612zm.92 1.005c-.019.171-.137.224-.216.294-.145.124-.375.077-.572.065H7.85a1.98 1.98 0 00-.256.053 3.697 3.697 0 00-.349.153c-.105.053-.21.112-.302.182-.125.1-.256.2-.375.312-.125.118-.27.23-.4.347-.106.094-.23.165-.362.224-.086.035-.178.088-.283.064a.743.743 0 01.112-.082c.309-.159.545-.406.743-.665.072-.082.315-.429.394-.494.138-.123.263-.276.454-.335.065-.018.217-.053.27-.053.091 0 .328.006.44-.006.177-.011.387-.023.525-.141.178-.13 0-.435 0-.435s-.256-.47-.486-.706c-.066-.065-.664-.865-.717-1.235a1.7 1.7 0 01.007-.447c0-.03.02-.118.033-.153.013.059.046.188.046.247.02.376.302.941.545 1.241.21.253.408.518.599.782.098.141.322.67.309.788zm.277-.576c.052.141.118.353.118.541 0 .13-.007.259-.013.382-.007.071-.02.512 0 .606.04.2.125.418.329.524.19.094.42.082.624.04.184-.034.375-.052.559-.034.138.017.296.094.309.229-.105-.03-.197-.088-.31-.094a1.152 1.152 0 00-.703.141c-.111.065-.223.141-.361.141a.446.446 0 01-.283-.117c-.138-.106-.263-.242-.315-.406-.086-.26.02-.694.04-.924.006-.1.025-.188.012-.294-.026-.37-.388-1.011-.473-1.123-.204-.283-.427-.559-.644-.835-.06-.083-.21-.37-.23-.406-.06-.1-.145-.341-.184-.488.052.064.144.182.19.247.066.088 1.006 1.164 1.236 1.629.033.065.086.206.099.241zm.71 1.764c.072.06.177.089.236.16-.21.023-.44-.054-.545-.218-.112-.17-.099-.536-.053-.806.007.241.066.459.118.57.06.111.143.211.244.294zm-.053-.876c.086.159.145.33.276.465.19.176.48.235.664.43-.006.005-.02.023-.026.029a1.78 1.78 0 01-.677-.224.55.55 0 01-.243-.33c-.027-.129-.047-.252.006-.37zm-.329-1.682c.224.365.244.753.171 1.076-.033.124-.098.441-.125.577-.013-.224-.046-.677-.138-.906a4.498 4.498 0 00-.19-.4 6.869 6.869 0 00-.303-.447c-.157-.212-.572-.665-.69-.8a6.79 6.79 0 01-.375-.465 5.362 5.362 0 01-.565-.982c-.046-.106-.098-.212-.105-.323.085.053.105.159.158.235.27.43.604.823.999 1.164.144.13.276.277.434.394.111.089.585.647.73.877zM6.76 8.104c.052-.1.118-.194.144-.3.06-.194.027-.394.04-.594.02-.27.033-.547.164-.794.066-.111.145-.223.25-.306.026.183 0 .371-.026.553-.045.296-.1.59-.165.883-.059.28-.085.566-.078.852a2.975 2.975 0 00-.33-.294zm.23.777c-.21-.106-.434-.212-.677-.23a2.26 2.26 0 00-.349.006c-.164.018-.308.1-.473.13.046-.1.151-.147.25-.2.243-.136.546-.218.828-.147a.76.76 0 01.401.247c.046.053.092.135.02.194zm.263-1.077c.046-.323.131-.64.177-.964.007-.1.007-.2.02-.294.02-.183-.006-.365 0-.547 0-.13.099-.235.184-.335-.046.211.013.435-.04.646a2.613 2.613 0 00-.098.783c0 .153-.033.3-.033.453.013.323.073.64.112.958.007.206.013.412.066.612.094.368.273.715.526 1.018.21.264.506.452.775.658.217.165.421.341.585.553.125.159.257.318.31.512.012.041.058.4.058.482-.006-.035-.039-.112-.046-.147-.032-.106-.092-.206-.138-.306a1.627 1.627 0 00-.341-.435c-.27-.265-.612-.447-.92-.665-.29-.188-.573-.394-.763-.67a2.115 2.115 0 01-.342-.818 5.554 5.554 0 01-.125-.805c.007-.236-.013-.465.033-.689zm2.741 3.835c-.026-.03-.053-.058-.072-.094-.151-.323-.447-.57-.73-.8a33.539 33.539 0 00-.506-.37 2.079 2.079 0 01-.809-1.041 2.51 2.51 0 01-.125-.583c-.013-.176-.052-.353-.078-.529-.033-.218-.099-.43-.106-.653.06.07.086.159.125.235.099.206.178.424.204.647.06.33.105.67.302.96.112.14.204.293.336.423.098.106.217.2.335.288.125.094.27.165.381.264.263.2.54.43.644.736.066.176.112.347.1.517zm-1.38-3.723c.013-.264.052-.54.164-.788.138-.265.335-.518.375-.818.046-.423-.092-.84-.198-1.252-.033-.118-.072-.236-.085-.353-.013-.106-.046-.212-.026-.318.118.182.21.382.295.582.046.089.046.189.053.289.007.153.085.3.118.447.02.076 0 .153-.013.223-.026.13-.059.253-.066.382a1.823 1.823 0 01-.144.618c-.066.153-.112.306-.165.459-.046.147-.105.294-.105.447 0 .143-.058.28-.164.388-.06-.088-.04-.2-.04-.306zM13.01 3.84c.092-.059.204-.1.283-.182.086-.088.112-.212.204-.294.013.047.02.1.006.147-.039.141-.092.294-.23.382-.138.112-.328.141-.5.194-.006-.006-.012-.023-.019-.03a1.53 1.53 0 01.256-.217zm-.144-.259c.02.06.066.112.066.177-.027.047-.086.064-.132.088 0-.076.013-.153 0-.223-.02-.112-.079-.206-.112-.312.112.059.132.176.178.27zm-.723 1.265c.15-.082.282-.188.381-.324.053-.07.099-.147.177-.194.119-.076.27-.1.408-.147.112-.035.204-.1.302-.147 0 .036.007.077-.02.106a.614.614 0 01-.315.224c-.118.035-.237.064-.342.123-.131.065-.223.182-.341.265a.923.923 0 01-.388.182c.04-.03.085-.064.138-.088zm-1.138-.035c.06-.07.092-.16.165-.224-.007.106-.073.194-.125.277-.04.058-.079.135-.171.129.04-.065.085-.123.131-.182zm-.67.376a2.44 2.44 0 01.802-.047c.217.012.44.03.65 0 .188-.02.367-.075.527-.165.184-.117.328-.276.506-.411a.456.456 0 01.217-.083.518.518 0 01-.145.188 2.664 2.664 0 01-.75.448 4.26 4.26 0 01-.663.194c-.125.023-.257.04-.382.064-.15.024-.302.018-.453.053-.178.041-.362.077-.526.159-.164.07-.309.177-.44.294-.073.065-.112.141-.178.212-.007 0-.02-.006-.026-.006.006-.118.065-.23.118-.341.138-.277.427-.477.743-.559zm.302-1.335a8.138 8.138 0 00-.23.282 1.472 1.472 0 00-.25.606c-.013.106 0 .212-.013.318-.046.04-.105.053-.158.076-.098.041-.19.1-.276.159.06-.141.132-.276.178-.423.085-.265.138-.553.322-.789.118-.13.256-.24.407-.34.106-.071.204-.148.316-.213-.079.124-.204.212-.296.324zm.855-.424c-.105.089-.257.106-.388.142.072-.13.25-.124.388-.142zM11.65 2c-.007.112-.02.235-.106.324-.046-.112.02-.241.106-.324zm-.533-.182c-.04-.065-.112-.106-.158-.17 0-.013.007-.03.007-.042.171.077.276.23.316.394-.073-.041-.119-.118-.165-.182zm-.046 1.159a.6.6 0 00.21-.242c.033-.088.053-.182.066-.276.02-.112-.026-.224-.026-.341.085.07.112.176.138.276a.534.534 0 01-.099.43c-.092.117-.164.253-.276.358-.217.218-.493.383-.743.565-.072.053-.131.124-.223.159.02-.07.079-.124.131-.177.25-.276.52-.535.822-.752zm-1.59 1.729c.104-.2.13-.424.21-.635a1.05 1.05 0 01.27-.383c.078-.07.163-.147.269-.194-.086.153-.244.265-.316.424-.105.188-.079.405-.105.611-.007.112-.013.224-.053.33-.092.24-.236.464-.295.717-.053-.064-.06-.14-.066-.217-.007-.083-.02-.171-.026-.253a.92.92 0 01.111-.4zM6.7 2.082c.125.04.25.111.289.235a.825.825 0 01-.29-.235zm.203-.118c.106.041.185.112.277.165.085.053.19.094.236.182a1.126 1.126 0 01-.388-.2.386.386 0 01-.125-.147zm.756.694c-.236-.1-.466-.235-.604-.435.059 0 .105.04.157.07.119.065.244.112.369.16a.92.92 0 01.486.37c-.145-.036-.276-.106-.408-.165zm1 1.164c-.092-.111-.224-.194-.329-.294a1.89 1.89 0 01-.302-.353c-.066-.105-.152-.2-.204-.311.25.082.486.253.578.488.08.182.217.341.349.494.105.124.23.235.341.359a.833.833 0 00.303.223c-.013.13-.086.247-.151.359a1.144 1.144 0 01-.092-.147c-.08-.176-.198-.335-.29-.506-.065-.106-.125-.217-.203-.312zm-.513 3.212a.665.665 0 00.394-.394c.08-.23.125-.465.158-.7.02-.23.04-.465.072-.694h.046c.04.23.086.464.105.7.014.184-.006.369-.059.547-.046.159-.144.294-.23.435-.079.118-.17.247-.328.294-.112.041-.257-.018-.296-.123.04-.036.092-.047.138-.065zm.243.4c-.007.13-.033.259-.059.388a11.15 11.15 0 00-.19-.406c.078 0 .164.006.25.018zm-.638-.53c.04.148.092.289.152.436.079.212.197.411.282.63.066.176.145.346.184.523.066.223.092.458.125.688.02.159.099.306.132.464-.112-.082-.165-.205-.23-.317-.171-.288-.237-.612-.303-.93a1.787 1.787 0 00-.158-.44c-.065-.183-.164-.348-.223-.53-.04-.112-.053-.235-.066-.353a.773.773 0 01.02-.347c.04.053.066.112.085.177zM7.541 3.9c.046.018.099.035.132.076.098.106.111.247.144.377.013.076.033.159.007.235-.066.065-.145.118-.217.177.066-.189.144-.383.092-.583-.02-.106-.099-.188-.158-.282zM7.41 5.081c.072-.041.15-.07.217-.123.118-.1.223-.206.355-.289.105-.064.197-.147.302-.217a.567.567 0 01-.158.247c-.151.13-.368.188-.493.341-.098.112-.184.241-.276.353 0-.106.007-.212.053-.312zm.013.459c.092-.1.144-.23.236-.335a.992.992 0 01.388-.283c-.02.141-.164.236-.27.336-.104.088-.118.23-.203.323-.06.065-.125.13-.17.2a4.36 4.36 0 01-.323.441c-.158.206-.276.447-.283.7-.02.177-.02.353-.033.53a.326.326 0 01-.15-.1c-.047-.053-.027-.124-.014-.189.04-.194.046-.394.099-.588.059-.217.19-.417.328-.606.106-.159.263-.288.395-.429zm-.375-.494c.013-.1.007-.206.02-.306.072.106.112.23.112.353a1.36 1.36 0 01-.237.623c-.053.083-.092.171-.164.242.006-.318.217-.594.27-.912zm-.17-.494c.039.212 0 .423-.08.623a.98.98 0 01-.138.288c-.065-.158-.046-.335-.046-.505-.006-.194.02-.394.013-.588-.006-.106-.026-.212-.04-.318.178.112.264.312.29.5zm-.395-1.124c.02.071.013.147.013.224 0 .082.033.159.066.235-.073-.03-.132-.082-.138-.153-.014-.106-.014-.223.059-.306zm-.29.247c.185.224.27.512.264.795-.053 0-.106.005-.152-.012-.046-.059-.04-.141-.052-.206-.013-.194-.125-.382-.06-.577zm.244 1.27c-.066-.034-.105-.087-.151-.14-.073-.083-.171-.147-.244-.23.138.03.27.065.408.083a.712.712 0 01-.013.288zM5.26 2.965c-.118-.07-.256-.124-.335-.23.144.053.27.124.407.183.06.03.119.047.171.088.027.035.027.082.04.123-.112-.035-.184-.117-.283-.164zm.375-.041c-.066-.277-.171-.577-.04-.86.04.1.02.207.02.313.007.129.026.252.06.376.058.247.236.459.302.706.039.147.072.294.085.441.013.13.053.253.066.382-.086-.059-.105-.158-.145-.24a18.636 18.636 0 01-.348-1.118zm-.007 1.282a.665.665 0 01-.282-.2.546.546 0 01-.125-.2c.177.088.295.247.407.4zm-.526-.418c.073.1.092.218.178.312.104.105.229.193.368.259a.334.334 0 01.138.106c-.151-.03-.296-.077-.447-.089-.131-.017-.263-.005-.394-.03.039-.052.098-.099.098-.164a.752.752 0 00-.04-.27c-.026-.077-.078-.147-.124-.212a.235.235 0 01.223.088zm-.736-.106c-.184-.135-.361-.288-.46-.488a.864.864 0 01-.046-.588c.052.118.052.247.092.37a.94.94 0 00.21.353c.145.153.342.242.526.353.151.094.224.27.19.436-.058-.024-.078-.083-.118-.13-.092-.13-.262-.2-.394-.306zm.993.912a3.586 3.586 0 00-.717-.07c-.079-.006-.17.017-.223-.042.21-.011.414-.023.624-.023.296 0 .592.059.855.188.204.112.381.265.493.459.02.03.013.059.013.094-.092-.088-.158-.2-.263-.283a2.004 2.004 0 00-.782-.323zm-.053.524c.086.017.171.029.256.035-.013-.06-.032-.112-.039-.17.013-.054.06-.095.092-.142.164.053.322.147.447.259.178.182.276.406.375.63.026.07.098.134.079.217-.027.112-.073.223-.053.341.04.276.013.565-.053.835-.013 0-.032-.006-.039-.006-.066-.159-.105-.323-.197-.47a.749.749 0 00-.329-.253c-.052-.024-.118-.053-.151-.1a.715.715 0 01-.105-.241c-.007-.124.059-.247.02-.365-.047-.165-.23-.247-.296-.4-.04-.053-.027-.118-.007-.17zm.164 1.117c-.059-.018-.138-.035-.138-.1-.02-.182.066-.353.086-.53.079.106.059.236.033.36a.63.63 0 00.02.27zm-.815-.559c.066.083.092.183.165.265.138.159.328.276.519.376.21.106.427.194.618.33.112.082.164.211.197.335.053.194.138.394.322.518.092.07.217.123.263.229a.493.493 0 01-.131.288c-.086-.094-.165-.194-.25-.294-.092-.112-.132-.247-.19-.376-.093-.194-.126-.424-.283-.594a1.441 1.441 0 00-.546-.336c-.21-.082-.44-.17-.572-.353a.54.54 0 01-.112-.388zm1.703 2.318c-.06 0-.132.011-.184-.03-.125-.106-.178-.259-.217-.406-.026-.094-.06-.188-.053-.288.119.136.158.312.25.459.06.088.151.165.204.265zM4.432 6.01a1.16 1.16 0 00-.23-.418c-.066-.077-.165-.112-.237-.177.17.012.296.142.388.26.125.158.105.376.237.534.072.095.203.112.282.2-.072.006-.151.012-.21-.029-.132-.088-.184-.235-.23-.37zm.565.5c.204 0 .44.035.585.176-.098.006-.19-.03-.29-.041-.19-.03-.38.006-.564.035-.165.024-.316.077-.48.1.21-.165.473-.276.749-.27zm-.591.464a1.29 1.29 0 01-.369.006c-.072-.012-.15-.018-.203-.065.124-.011.25-.006.374-.035.31-.065.625-.141.947-.13.19.007.4.077.513.224-.099-.03-.191-.082-.296-.088-.329-.035-.644.047-.966.088zm.447.388c-.027-.088 0-.182 0-.276.197-.024.407-.059.591.023a.443.443 0 01.237.253c-.112 0-.217-.012-.329.012-.105.024-.204.07-.315.059-.066-.012-.138-.024-.184-.07zm.144.277c.04-.03.079-.06.132-.077.164-.064.328-.153.512-.123a.912.912 0 01-.177.07c-.158.042-.303.124-.467.13zm.717.164c-.08-.082-.198-.117-.303-.17.086-.041.198-.077.296-.041.086.035.105.123.132.194.02.076.065.147.111.211-.098-.04-.164-.117-.236-.194zm-1.532.194c.033.06.06.118.085.177.04.088.099.165.139.247-.047-.006-.106.006-.132-.035-.066-.112-.092-.241-.125-.365a.14.14 0 00.033-.024zm-.855.2c.106.048.191.124.296.165.099.047.217.065.31.13a.868.868 0 01-.566-.136c-.118-.07-.25-.158-.296-.282l.256.124zm-.387-.752c-.046-.012-.1-.018-.132-.053-.02-.065-.02-.13-.026-.194.092.064.118.158.158.247zm-.894.058c-.158 0-.323-.017-.447-.105a.288.288 0 01-.1-.147c.06.017.106.064.152.1.066.058.164.076.256.088.23.03.46.011.684.035.138.018.27.088.355.182.079.089.158.177.21.283-.118-.041-.184-.136-.276-.206a.976.976 0 00-.309-.177 1.974 1.974 0 00-.525-.053zm.867.789c-.184-.153-.184-.418-.394-.547-.08-.065-.204-.047-.29-.1.047-.012.086-.024.132-.018.138.024.283.059.381.153.178.159.204.412.401.565.197.152.444.245.704.264.079.006.15.012.23.03-.119.047-.243.082-.362.123a.833.833 0 01-.21.041c-.026-.082-.046-.17-.118-.235-.132-.135-.342-.153-.474-.276zm-.52.47c.185-.018.35.059.514.112.203.076.427.106.644.065a5 5 0 00.5-.124c.144-.047.295-.059.447-.065-.033.047-.1.071-.158.089-.165.053-.335.111-.506.135-.25.035-.5.059-.75.012-.19-.036-.368-.118-.559-.153-.124-.024-.243.017-.361.023.052-.07.144-.088.23-.094zm.553.382c-.144-.035-.263-.14-.42-.135a.612.612 0 00-.382.13c-.092.058-.151.14-.237.205.007-.076.073-.14.112-.205.079-.118.197-.242.362-.242.282-.011.5.189.775.224.349.047.697-.012 1.033-.077.276-.053.532-.176.769-.311.348-.218.716-.43 1.137-.53.131-.029.276-.053.408 0a.698.698 0 01.256.16c-.118-.024-.23-.077-.349-.083a1.317 1.317 0 00-.48.047 2.088 2.088 0 00-.512.27c-.138.1-.276.212-.427.306-.415.241-.92.336-1.414.318a2.85 2.85 0 01-.631-.077zm-.822 1.706c0-.012-.006-.03-.006-.041.105-.018.204-.041.309-.065-.06.1-.19.124-.303.106zm.92.188c-.137-.047-.282-.147-.295-.288-.02-.106.04-.2.105-.276.02.076.026.153.046.223.026.118.099.224.145.341zm-.321-.711c-.125.123-.217.282-.382.364-.052.03-.111.024-.17.024.17-.147.341-.3.473-.476a1.82 1.82 0 01.42-.406.588.588 0 01.178-.077c-.164.194-.355.37-.52.57zm.079-.5c-.093.076-.152.182-.237.264-.02-.094.033-.176.066-.264a.681.681 0 01.256-.341c.112-.07.25-.053.381-.042.073.012.158.006.217.047-.25.077-.5.171-.683.336zm6.98 3.405a3.634 3.634 0 00-.203-.582 3.268 3.268 0 00-.316-.541c-.105-.147-.243-.265-.38-.388-.12-.106-.25-.194-.376-.294-.15-.118-.302-.236-.447-.365-.15-.135-.27-.294-.4-.441-.132-.165-.283-.312-.402-.488-.105-.153-.19-.318-.315-.465-.197-.235-.44-.459-.756-.559-.151-.053-.316-.047-.473-.041-.362.024-.684.206-1.052.23-.151.017-.29.082-.44.093-.198.012-.395.048-.592.03-.138-.018-.283-.024-.421-.035.164-.047.342-.018.506-.018.382.012.763-.065 1.13-.153.178-.041.35-.123.52-.182.224-.088.44-.212.697-.212.19-.012.381.041.559.094a.762.762 0 01.414.33c.21.34.381.705.618 1.035.204.282.506.494.808.688.408.259.829.535 1.085.929.105.153.151.335.197.512.046.182.06.364.112.547.06.217-.033.54.013.87.046.353.151.441.197.53.119.211.31.388.421.606a1.072 1.072 0 01-.414-.277 1.134 1.134 0 01-.19-.359 1.268 1.268 0 01-.073-.44 2.644 2.644 0 00-.026-.654zM4.919 10.47c-.092.03-.19.041-.282.076-.145.047-.27.141-.428.17-.105.024-.203-.029-.289-.07-.118-.064-.25-.164-.23-.306.066.065.092.153.164.206a.561.561 0 00.52.065c.223-.076.427-.188.65-.265-.026.047-.046.1-.105.124zm.06.27a1.92 1.92 0 01.387-.458c.125-.124.276-.23.46-.289a.672.672 0 01.119.147.942.942 0 00-.316.112c-.23.153-.414.353-.65.489zm.696-.347a.059.059 0 00-.013-.035c.105-.018.25-.053.329.041-.105.006-.21 0-.316-.006zm-.013-.97a1.326 1.326 0 00-.375-.088c0-.012.007-.03.007-.036.164-.03.329-.035.493-.047.224 0 .46.047.625.189a.807.807 0 01.236.27c-.098.07-.243.059-.355.03-.223-.083-.414-.224-.631-.318zm.447.494c.138.03.256.106.401.106h.276a.39.39 0 01.072.241c-.223.018-.427-.088-.604-.2-.06-.035-.138-.07-.145-.147zm.579.73a.947.947 0 01-.342-.212.384.384 0 01-.08-.183c.126.07.244.159.389.2.111.035.236.018.348.018.026.041.072.076.066.13a.411.411 0 01-.086.205c-.098-.047-.19-.112-.295-.159zm-.092 2.275a.523.523 0 01.131-.276c.026-.023.06-.065.092-.07.007.076.04.917.151 1.188-.066.023-.105.04-.17.058-.047-.047-.178-.47-.185-.5a1.067 1.067 0 01-.02-.4zm-.152 1.57s.217-.24.257-.276c.157-.117.342-.229.552-.223.118.006.256-.006.355.059a3.977 3.977 0 00-.355.094c-.276.07-.48.276-.65.482-.034.041-.1.13-.132.177-.21.258-.388.547-.664.758-.013-.005-.033-.017-.04-.017.178-.259.31-.541.487-.8.059-.088.105-.188.19-.253zm-.927.907c.08-.136.132-.288.25-.406.053-.053.099-.106.145-.165.02-.035.072-.03.112-.041-.046.1-.112.188-.165.288a3.185 3.185 0 01-.27.447.98.98 0 01-.269.235c-.013-.011-.02-.029-.033-.04a1.53 1.53 0 00.23-.318zm-2.143 1.076c-.059.065-.111.135-.177.188-.026-.058.033-.106.066-.153.098-.111.177-.258.342-.306-.053.106-.152.183-.23.271zm.717-.012c-.033.047-.072.106-.138.118a.512.512 0 01-.322-.059c.072-.094.144-.194.243-.27a.72.72 0 01.427-.089c-.072.1-.144.2-.21.3zm1.275-.106c-.223.018-.453 0-.683.036-.178.035-.303.153-.408.276-.033.047-.092.07-.151.082.04-.052.085-.1.131-.14.119-.118.184-.277.316-.383.112-.1.276-.13.434-.147a.69.69 0 01.309.041c.131.047.276.077.4.147-.104.065-.23.077-.348.088zm.033.636c-.006-.012-.02-.03-.026-.041a7.85 7.85 0 00.223-.265.493.493 0 01.19-.165.599.599 0 01.178-.035c-.039.111-.144.188-.197.294a.434.434 0 01-.368.212zm.73-.247c-.026.064-.026.14-.053.206-.059.082-.184.1-.276.052a.716.716 0 01.171-.282 1.04 1.04 0 01.296-.247c.158-.076.348-.07.513-.13.131-.046.23-.135.348-.193.026.082-.046.158-.105.217-.145.106-.342.106-.52.112a.444.444 0 00-.374.265zm1.9-.76a.92.92 0 01-.086.419c-.066.135-.19.235-.322.323-.04-.006-.033-.047-.007-.065a1.17 1.17 0 00.224-.447c.04-.159.06-.323.125-.47.013-.03.04-.047.059-.065.026.1.007.206.007.306zm.335.207a.286.286 0 01-.171.2c-.007-.041-.013-.077-.007-.118.033-.182.033-.365.046-.547.013-.118.073-.247.204-.294-.02.112-.059.218-.059.335.006.141.02.288-.013.424zm.177-1.07c-.158.14-.4.146-.565.276a.912.912 0 00-.217.317c-.092.218-.085.46-.184.677-.072.14-.178.288-.342.347-.079.03-.158.006-.236-.012-.08-.018-.158-.035-.237-.059.112-.035.25-.023.348-.088a.669.669 0 00.25-.341c.099-.265.053-.565.21-.812.086-.147.27-.206.428-.264.177-.06.361-.124.512-.23.125-.088.263-.294.263-.294s-.033.353-.23.482zm.414 1.129c-.144-.071-.197-.23-.23-.365a1.737 1.737 0 01.046-.688 2.52 2.52 0 01.105-.259c-.026.241-.059.535.053.764.06.136.178.23.29.33.085.07.197.106.289.159-.165.07-.369.117-.553.059zm.802.252a.601.601 0 01-.289-.005c.224-.136.513-.253.776-.142a2 2 0 01-.487.147zm1.611.389c-.086-.07-.125-.171-.217-.236-.105-.076-.217-.147-.309-.235a1.496 1.496 0 00-.375-.27c-.092-.053-.204-.06-.295-.118.164-.094.374-.135.558-.059.138.047.217.17.283.277.046.088.099.17.151.252.046.071.066.16.138.206.08.06.178.1.243.183-.052.03-.125.035-.177 0zm1.334-.506a2.61 2.61 0 00-.526.053 1.437 1.437 0 01-.387.012v-.047c.125-.012.256-.024.374-.065.178-.047.349-.13.54-.106.144.023.275.088.394.165-.132.04-.263-.012-.395-.012zm1.092.076c.125-.017.243-.04.368-.035.033 0 .059.018.092.03a.744.744 0 01-.5.164 1.218 1.218 0 01-.427-.123c.158-.042.316-.012.467-.036zm-.52-.711c.158.059.283.17.369.3.02.023.02.053.013.082a2.09 2.09 0 01-.48-.388.18.18 0 01.098.006zm-.841-.089c.105-.023.21 0 .309.036.125.047.223.14.315.23.1.1.204.187.283.299-.256-.047-.46-.247-.736-.253-.217.03-.414.13-.618.194a.873.873 0 01-.46-.006c-.033-.011-.08-.017-.099-.053-.033-.076-.053-.159-.098-.229-.046-.07-.099-.147-.125-.23.111.042.21.112.328.148.127.03.26.034.388.011.178-.029.335-.105.513-.147zm-1.742-1.558c-.092-.07-.171-.106-.243-.165.072.018.125.041.197.059.118.03.368.094.486.153.119.064.257.147.349.253.092.111.217.306.25.44.039.171.046.307.19.471.066.077.165.147.224.218a.483.483 0 01-.395-.135c-.164-.16-.276-.365-.4-.577l-.126-.2c-.092-.13-.17-.24-.289-.329-.02 0-.21-.165-.243-.188zm.677-.077a2.06 2.06 0 01-.21-.059c-.224-.094-.421-.064-.723-.229 0 0-.23-.123-.303-.359.131.047.31.153.506.177.165.04.368.053.513.153.112.07.178.194.217.317zm-.29-.547c-.223-.03-.48-.053-.69-.123-.026-.006-.216-.094-.236-.13a.408.408 0 01-.04-.229c.099.047.355.17.467.2.072.023.237.053.322.106.072.04.132.1.178.176zm-4.305-1.082c-.046.077-.118.112-.164.159-.105.112-.138.206-.204.347-.033.07-.06.153-.105.217-.112.136-.197.289-.184.453l-.007.189c-.006.123.013.229 0 .358a.711.711 0 01-.223.447c-.02.018-.158.13-.158.13-.072.082-.151.159-.204.247-.105.153-.164.323-.29.464-.203.242-.519.377-.834.453-.25.06-.52.053-.756.142a.535.535 0 00-.27.223c-.092.141-.17.294-.302.418-.118.117-.355.04-.447.194.092.006.178-.024.27-.03.118-.006.243.018.355-.03.111-.04.23-.14.361-.1.164.066.316.154.48.2.079.024.158-.017.223-.058.112-.076.237-.147.375-.176.119-.024.23.017.349.03.118.005.236 0 .361.01-.013.042-.026.09-.072.107-.072.023-.165.006-.224.058-.052.042-.131.083-.118.153.04.06.118.077.19.071.112-.012.198.059.303.065.105 0 .184-.07.283-.088.125.017.25.088.38.04.106-.058.172-.176.297-.205.15-.024.296.041.44.059.184.023.368.029.546-.018.151-.035.309-.053.46-.1.17-.047.322-.13.493-.165.118-.03.237-.053.361-.047.217.018.428.047.638.07.217.024.434-.023.651-.04.315-.036.65-.012.94.111.131.053.204.171.329.236.105.03.217-.018.322-.012.059-.006.151.023.164-.047.04-.1-.026-.2-.079-.282.184-.03.375.005.552-.024.342-.059.704-.065 1.04.047.23.076.492.13.735.053.132-.03.237-.112.355-.159.105.112.197.241.342.312.125.059.276.094.408.03-.007-.095-.08-.165-.119-.248-.04-.076-.065-.17-.138-.23-.085-.081-.217-.081-.328-.093-.073-.041-.112-.112-.191-.147-.118-.047-.256-.006-.375-.03-.118-.123-.15-.3-.276-.423-.131-.141-.329-.212-.52-.253-.137-.03-.275-.065-.413-.082-.184-.018-.414-.036-.612-.16-.177-.093-.203-.7-.427-.97-.131-.158-.105-.37-.21-.535-.033-.07-.263-.476-.375-.559-.138-.1-.394-.247-.539-.412-.17-.2-.099-.482-.21-.729a1.387 1.387 0 00-.066-.141c-.053-.106.04-.223.105-.312.138-.158.138-.376.276-.535a1.08 1.08 0 01.46-.33c.165-.058.349-.04.52-.064.15-.024.302-.047.453-.018.08.012.165.053.204.118.046.065.026.147 0 .218-.046.135-.19.211-.309.294-.092.064-.204.076-.302.123-.073.036 0 .118.065.106.184-.023.33-.13.48-.206-.033.07-.092.136-.118.206-.026.065-.026.159.033.194.013.006.046.012.06.006.071-.047-.008-.17.025-.247.027-.07.105-.112.125-.182a.744.744 0 01.086-.194c.138-.206.046-.477-.132-.641-.072-.077-.177-.106-.276-.136.033-.1.092-.194.138-.288a.728.728 0 01.348-.335c.145-.07.316-.077.474-.083.085-.005.151.053.204.112.092.1.111.236.131.36.033.258-.125.51-.079.77.02.129.132.229.243.305.106.07.257.047.362.13.085.064.19.1.302.088.198-.012.355-.13.533-.2.177-.07.368-.123.565-.106.125.012.197.124.224.224.026.105-.191.258-.066.294.17.053.151-.253.138-.388.072-.006.158.011.21-.042.066-.07.244-.135.198-.217-.014-.03-.066 0-.1.011-.084.024-.117.124-.21.136-.124 0-.23-.083-.335-.136-.111-.058-.243-.064-.361-.088.07-.116.15-.228.236-.335.139-.147.303-.288.513-.347.099 0 .197.041.276.1.08.082.086.206.204.27.046.024.118.018.125-.017.007-.053-.105-.059-.145-.1-.065-.07-.065-.183-.098-.27.111-.042.381-.118.276-.2-.066-.054-.151.076-.23.111-.171.053-.362-.041-.533.018-.198.071-.382.17-.545.294-.158.117-.316.247-.5.335-.105.053-.256.088-.355.012a.461.461 0 01-.118-.282c.013-.118.072-.23.066-.353-.007-.141-.04-.306.065-.43.086-.135.27-.153.42-.176.25-.024.494-.135.75-.077.073.036.112.094.171.147.06.06.145.083.224.112 0 .03-.02.07.006.088.027.018.08.012.099-.017.026-.03-.013-.07-.02-.106.027-.03.08-.041.092-.082.007-.018 0-.048-.02-.053-.059-.012-.091.07-.131.111-.092-.023-.138-.106-.204-.158a2.626 2.626 0 00-.374-.247 7.2 7.2 0 00.394-.36c.085-.088.145-.193.256-.258.132-.077.296-.07.421-.153.079-.047.257-.135.178-.194-.092-.07-.21.106-.322.147-.112.035-.237.047-.336.112-.111.082-.197.188-.315.264a4.67 4.67 0 01-.48.277 1.211 1.211 0 01-.408.13c.012-.108.014-.216.007-.324 0-.07-.007-.16.066-.206.144-.018.276.059.394.123.06.036.138.012.184-.035.033-.03.02-.076.026-.118-.072.024-.111.112-.19.083-.119-.047-.237-.1-.362-.141.046-.047.092-.089.138-.142-.006-.047-.079-.029-.118-.04-.007.04.007.082-.013.117-.08.076-.204.1-.263.194-.08.13-.072.3-.197.412-.046.047-.125.047-.191.023-.197-.059-.375-.164-.565-.24-.165-.066-.349-.048-.52-.042-.138.006-.27-.047-.4-.077a1.558 1.558 0 00-.737.012c-.118.03-.217.094-.329.141-.026-.082-.039-.176-.105-.247-.033-.047-.092-.094-.079-.158a.403.403 0 01.092-.253c.04-.041.119-.03.152.011.039.048.072.1.118.147a.422.422 0 00-.06-.235c-.052-.088-.21-.1-.276-.017-.078.088-.105.205-.144.305-.132-.029-.276-.111-.408-.04-.19.082-.177.334-.046.452.112.094.257-.094.178-.182-.066-.024-.165-.012-.184-.094a.232.232 0 01.138-.053c.105-.006.243-.018.302.082.033.1.02.2.007.3-.06.247-.21.5-.48.606a1.088 1.088 0 01-.434.076c-.132-.011-.197-.135-.217-.235a1.026 1.026 0 01.118-.694c.066-.112.171-.2.276-.282a3.53 3.53 0 01.835-.43.256.256 0 01.257.041c.131.106.21.253.348.353.08.06.184.077.27.13.072.04.144.106.236.112.092.005.197.005.263-.053.08-.06.112-.165.21-.206.066-.03.165.023.145.082-.013.041-.118.053-.105.1.02.053.151.018.178-.041.032-.094-.06-.194-.158-.218-.079-.023-.158.03-.23.053-.04-.088-.119-.3-.197-.223-.053.047.078.112.091.182-.013.13-.203.177-.315.124-.085-.071-.131-.171-.178-.265-.039-.106-.105-.206-.144-.318a2.14 2.14 0 01.697-.094c.223 0 .414.112.611.188.158.06.342.047.506.094.178.06.329.16.493.248a.65.65 0 00.395.053c.111-.018.23-.036.315-.106.105-.1.138-.247.263-.33.112-.047.27.006.355-.094-.125-.006-.25 0-.368.03-.138.052-.177.194-.256.294-.04.053-.105.076-.171.1.072-.083.17-.147.204-.247.046-.095 0-.195-.007-.289.072-.023.145-.035.21-.07.04-.03.027-.083-.013-.106-.072-.041-.17-.03-.223.035-.099.118-.027.277-.086.412-.04.082-.105.176-.217.188-.131.018-.256-.047-.355-.118-.158-.111-.355-.182-.532-.27-.119-.059-.257-.065-.362-.147a.799.799 0 01.165-.07c.138-.036.263-.112.407-.124a1.76 1.76 0 00.789-.294c.184-.13.309-.324.526-.412.118-.053.263-.047.394-.059.158-.006.329-.006.474.065.092.065.111.176.111.27.007.053-.013.124.046.16a.759.759 0 00.007-.365c-.02-.089-.105-.147-.177-.2.13-.036.282-.024.407-.089.04-.017.06-.053.086-.082-.132.024-.257.076-.395.065-.296-.012-.578-.118-.874-.1-.151.006-.296.053-.434.088.033-.082.072-.159.092-.241.033-.153.033-.312.04-.465.006-.076.006-.159.052-.223.085-.1.23-.153.368-.17.119-.019.263-.013.355.07.112.094.066.247.158.347.02.023.059.023.092.035-.046-.082-.099-.165-.112-.253-.013-.07-.06-.123-.105-.176.112-.047.23-.1.263-.212-.145.03-.263.118-.42.118-.172.005-.343-.089-.514-.048-.15.048-.19.195-.27.306-.11.147-.163.324-.21.494-.02.065-.039.13-.085.177a.63.63 0 01-.184.117c-.105.042-.223.042-.335.048-.105.005-.204.023-.31.04.04-.064.08-.123.12-.188.072-.129.11-.27.124-.417.013-.124.085-.23.145-.341.059-.088.112-.183.204-.253.137-.112.315-.177.466-.27.086-.054.151-.136.25-.154.145.006.283.06.427.036.08-.012.21-.07.165-.124-.053-.059-.158.07-.244.077a1.006 1.006 0 01-.322-.036c.046-.082.125-.159.125-.258 0-.106.053-.283-.059-.318-.026-.006-.046.03-.06.053-.052.094.106.194.053.294a.607.607 0 01-.203.235c-.165.059-.342.053-.506.094-.093.024-.171.077-.257.118-.02-.076.007-.159 0-.241-.006-.153-.098-.294-.092-.447a.351.351 0 01.158-.212c.098-.03.204.024.302-.006.066-.018.224-.065.171-.118-.066-.064-.184.053-.283.048-.072 0-.15-.012-.223.011a.39.39 0 00-.21.142c-.033.052-.046.111-.066.17-.092-.065-.112-.176-.112-.276-.006-.13.296-.218.184-.294-.15-.106-.289.235-.276.405 0 .124.092.224.125.342a.683.683 0 01-.026.47c-.053.123-.19.188-.263.3-.06.076-.08.17-.105.259-.027.094-.132.141-.184.23-.093.14-.158.293-.277.423-.197.23-.473.388-.742.529a.864.864 0 01-.217.088c.033-.212-.014-.423.026-.635.013-.065.013-.135.046-.194.02-.041.072-.059.112-.077.092.071.138.2.263.224.158.03.289-.124.276-.253 0-.088-.145-.153-.197-.065.04.047.111.1.085.165-.026.094-.184.088-.237.018-.065-.07-.105-.183-.217-.194-.092-.012-.138.07-.203.111-.053.006-.106 0-.158.012-.053.024-.072.077-.099.118.02-.006.046-.006.066-.012.079-.018.145.07.125.135-.026.106-.085.206-.138.306a1.019 1.019 0 01-.375.424c-.177.1-.381.176-.591.188-.224.017-.434.094-.658.1 0-.077 0-.153.04-.218a.52.52 0 01.374-.23c.112-.017.217-.064.33-.07.091.024.17.088.269.1a.205.205 0 00.164-.053c.033-.03.046-.082.02-.106-.06-.047-.139.07-.21.095-.066 0-.112-.048-.159-.077.1-.041.21-.059.296-.118.105-.07.132-.24.013-.311-.046-.042-.144-.006-.138.053 0 .076.046.17-.013.229-.085.082-.256.076-.381.03-.079-.024-.151-.054-.23-.077.125-.13.27-.247.42-.353.115-.08.248-.135.388-.165a2.9 2.9 0 001.006-.417c.132-.088.237-.188.355-.288a.545.545 0 00.099-.106c.118-.17.217-.347.361-.506.066-.065.151-.118.204-.188.072-.094.145-.2.138-.318 0-.065-.02-.135 0-.2.053-.094.158-.153.25-.206.125-.065.237-.153.368-.194.105-.035.224-.047.329-.082a.492.492 0 00.25-.265c.02-.047.065-.123.138-.106.059.035.085.106.15.141.04.012.08.006.126.006-.04-.053-.119-.082-.151-.141-.033-.07-.112-.112-.184-.147a.753.753 0 00.026-.382c-.007-.06-.033-.118-.02-.177.04-.053.092-.1.132-.147-.1-.03-.165.053-.198.124-.059.153.086.312.02.464-.046.13-.17.218-.296.289-.072.035-.15.035-.23.035-.131 0-.263 0-.394-.006-.013-.124-.04-.247-.053-.376-.013-.1.132-.295.21-.2.033.04-.046.111-.006.147.026.023.092.011.118-.018.046-.053-.013-.13-.059-.17-.066-.065-.17-.06-.256-.071.006-.07.026-.135.026-.206a.203.203 0 00-.099-.176c-.065-.006-.144.07-.184.029-.052-.047.099-.165.04-.2-.099-.059-.197.241-.072.276.072.018.144-.029.21-.047.06.094.04.2-.007.294-.052.112-.138.212-.177.33-.046.123-.046.259-.086.388-.026.1-.144.147-.204.235-.078.112-.118.247-.223.341-.092-.082-.112-.2-.184-.294a2.895 2.895 0 00-.381-.4.616.616 0 01-.171-.3c-.04-.129.066-.276.21-.311.08.111.151.253.31.3.11.035.288-.041.255-.147-.013-.042-.072-.065-.111-.047-.053.023-.027.117-.08.14-.15.06-.269-.146-.282-.276.099-.047.197-.094.263-.182.046-.059.04-.13.046-.194.007-.053.053-.165-.013-.165-.105 0-.026.182-.06.27-.026.065-.104.095-.177.124-.098.041-.204 0-.309.018-.105.053-.138.165-.157.265-.066.276.059.552.203.788.106.159.204.33.198.517a1.103 1.103 0 01-.244.588 1.19 1.19 0 01-.348.336 1.759 1.759 0 01-.927.33 4.85 4.85 0 00.171-.595c.033-.118.052-.241.112-.353.059-.1.19-.182.322-.153.026.083.046.177.125.23.046.035.118.035.17.006.047-.03.06-.077.086-.118a.135.135 0 00-.046-.012c-.04.012-.079.041-.118.041-.112-.04-.125-.176-.237-.217a.465.465 0 00-.473.2c-.165.24-.243.535-.473.747a.434.434 0 01-.04-.4c.04-.094.164-.136.21-.218-.006-.118-.256-.159-.282-.023.066-.006.138-.012.204-.012-.066.106-.204.147-.257.264-.085.142-.059.312-.098.465a.214.214 0 01-.237.17c-.02-.105.013-.217.026-.323a.964.964 0 01.138-.417 1.63 1.63 0 011.118-.73c.138-.023.276 0 .414-.017.125-.024.197-.13.309-.177.053-.012.079.041.072.082-.006.071-.105.165-.052.218.033.03.105.006.131-.035.046-.065.072-.147.04-.218-.046-.065-.132-.094-.185-.147-.085-.088-.138-.247-.269-.247-.046 0-.033.077 0 .118.04.04.112.076.085.135-.026.053-.072.13-.15.118-.244-.012-.48-.03-.724-.047.04-.094.099-.183.131-.277.04-.118.132-.212.178-.33.079-.211.164-.429.19-.652.014-.118-.006-.241.04-.359.04-.1.112-.188.132-.288.026-.088.046-.206.164-.235.118-.036.283-.053.329-.177-.06.024-.112.059-.171.083-.08.029-.165.023-.23.064-.053.024-.119.077-.178.036-.059-.048-.098-.112-.164-.148.006.124.164.183.164.306.007.083-.066.141-.112.2a.819.819 0 00-.17.353c-.02.077-.033.16-.1.218-.085-.1-.144-.218-.203-.33-.098-.17-.322-.217-.467-.347-.065-.064-.164-.14-.125-.235.027-.088.204-.247.086-.264-.138-.018-.132.217-.197.323-.21-.135-.329-.377-.276-.612.026-.117.302-.23.19-.3-.085-.053-.144.124-.197.194-.079.1-.066.236-.046.347.053.236.27.389.454.547.138.118.25.265.354.406.06.077.119.159.165.247.06.112.06.241.046.36-.02.17-.138.323-.283.428-.066-.111-.092-.235-.138-.353-.04-.117-.085-.229-.092-.352-.006-.03.027-.047.046-.06.046-.029.138-.07.158-.011.02.059-.085.141-.026.176.144.083.065-.311-.086-.294-.085.012-.21-.017-.25.053-.02.042.066.077.06.118-.007.07-.014.147-.027.218h-.04a.49.49 0 01-.21-.36c-.013-.1.08-.176.092-.27-.013-.076-.078-.135-.138-.182-.092-.07-.223-.03-.328-.053-.046-.035-.033-.112-.086-.13a.08.08 0 00-.04.003.073.073 0 00-.032.021c-.02.035.007.082.04.112.059.047.144.047.216.053-.013.064-.079.159-.013.194.02.012.053.006.072-.006.06-.035.08-.106.125-.159.027.024.066.047.073.088.026.124-.06.242-.04.371.02.2.158.37.27.541.085.13.158.282.125.435-.027.1-.125.17-.224.212-.283.135-.585.277-.782.512-.066.076-.092.176-.164.247a.78.78 0 01-.106-.147c-.065-.124-.046-.265-.013-.394.04-.183.171-.33.27-.488.085-.13.204-.253.223-.412.013-.112-.098-.183-.15-.277a.764.764 0 00-.139-.147c.092-.106.31-.07.25-.176-.02-.035-.099-.059-.145-.018a.638.638 0 00-.118.188l-.079-.07c-.04-.041-.092-.088-.164-.082-.053.005-.119.035-.119.076 0 .03.04.059.08.065.052.006.111-.041.164-.024.144.041.177.212.256.324.046.07.085.164.026.235-.098.135-.243.241-.374.353-.08.07-.139.159-.198.241-.105-.106-.125-.253-.157-.388-.033-.206-.132-.406-.152-.618a2.123 2.123 0 01.02-.576.996.996 0 01.125-.335c.072-.106.223-.136.302-.236.073-.088.092-.2.158-.288.086-.106.237-.135.342-.223a.18.18 0 00.04-.224c-.035-.054-.121-.066-.16-.119-.027-.04.02-.129-.033-.14-.04-.007-.033.064-.033.1 0 .093.105.146.158.217-.066.123-.224.159-.349.23-.085.046-.138.129-.19.205L9.17.788c-.006.094 0 .2-.059.282-.066.076-.17.118-.237.2-.078.094-.164.182-.236.276-.079.1-.112.23-.171.341-.086-.07-.158-.153-.243-.217a2.608 2.608 0 01-.336-.306c-.039-.053-.092-.118-.072-.182.026-.1.086-.195.112-.295a.356.356 0 00-.105-.34c-.04-.048-.099-.089-.092-.154 0-.111.23-.235.131-.3-.118-.076-.217.212-.184.348.02.076.118.135.086.211C7.653.576 7.502.4 7.396.493c-.013.012-.013.036 0 .053.053.053.158.018.224.06.066.046.131.082.197.123.033.088-.02.176-.046.258-.066.148-.098.312-.04.465.073.17.191.33.323.47.092.1.23.165.296.283.026.041.02.082.013.13-.013.117-.02.24-.007.358.026.165.112.318.184.47.073.142.165.277.296.383.138.118.276.235.408.365a.734.734 0 01.21.34.57.57 0 01-.145-.087c-.17-.17-.341-.347-.512-.518-.25-.27-.342-.63-.592-.9-.145-.135-.296-.27-.493-.341-.112-.035-.138-.147-.217-.218-.072-.064-.164-.1-.25-.147a1.204 1.204 0 01-.328-.253c-.073-.07-.112-.176-.073-.27.027-.082.106-.147.152-.218.032-.059 0-.123-.027-.182l-.052.03c0 .035 0 .07-.007.105-.007.13-.164.206-.158.335.007.165.112.306.125.471-.125-.041-.236-.118-.374-.112-.171-.006-.283.13-.441.153a.268.268 0 01.013-.123.146.146 0 00-.092.164c.066.012.132.036.204.024.092-.035.17-.135.29-.106.19.041.321.182.466.288.138.112.302.206.46.294.243.135.467.336.565.583-.131.011-.243-.071-.374-.077-.132-.018-.263.012-.388.03-.046.005-.079-.03-.112-.053.02-.047.105-.112.06-.142-.04-.029-.093.047-.112.095-.014.047-.007.1-.007.153-.046.023-.099.04-.132.076-.039.053-.059.141-.006.176a.08.08 0 00.053 0c.059-.04.02-.158.105-.188a.548.548 0 01.197.012c.17.03.342.053.5.123.137.06.262.142.394.218.19.118.388.253.486.447.092.153.092.33.112.5.02.188-.026.37-.053.553-.052.214-.098.43-.138.647-.046.265-.046.547-.164.794-.079.153-.223.306-.414.335-.02-.053-.046-.1-.06-.159-.045-.182-.078-.37-.118-.558-.046-.26 0-.518.046-.77.04-.177.237-.266.323-.418.072-.142.118-.306.27-.4.071 0 .13.088.203.058.04-.023.072-.076.04-.117-.034-.07-.139-.053-.205-.065.027-.159.119-.318.04-.476-.046-.112-.217-.17-.335-.106-.046.023-.046.076-.033.111.033.03.085.024.131.03.02.041.06.076.046.123a.624.624 0 01-.348.33c-.026-.177-.013-.37-.138-.518-.092-.123-.25-.182-.388-.247.04-.035.132-.065.118-.117-.006-.053-.105-.053-.17-.036-.066.018-.073.083-.093.13-.039-.006-.085-.006-.111-.036-.02-.029.006-.082-.027-.1-.032-.017-.092 0-.111.03-.08.117.21.153.322.217.164.1.27.277.243.46-.026.2-.125.387-.243.558-.066-.059-.092-.141-.145-.206-.066-.088-.164-.153-.223-.247-.138-.224-.316-.435-.362-.694-.026-.194-.04-.412.072-.582.053-.089.152-.141.21-.224.034-.047.093-.147.034-.17-.066-.024-.086.1-.119.153-.026-.047-.052-.095-.092-.136-.052-.047-.17-.1-.21-.047-.046.07.177.065.197.136.04.14-.131.252-.223.358-.092.106-.125.236-.178.36-.112-.095-.184-.213-.27-.324-.25-.371-.387-.812-.335-1.241.014-.16.106-.295.119-.453 0-.189-.191-.324-.197-.506.032-.106.328-.165.23-.235-.086-.06-.198.094-.263.176-.033.047-.007.112-.007.165a.363.363 0 01-.177-.077c-.066-.047-.053-.14-.112-.194C5.319.852 5.293.84 5.28.846c-.06.047.013.141.059.194.085.089.243.106.322.2.072.118.013.253-.02.377-.085.323-.197.647-.19.982.006.077.013.153.006.23-.263-.054-.52-.142-.71-.318-.138-.135-.085-.341.02-.477.046.024.092.077.138.06.072-.03.013-.165-.072-.189-.08-.024-.112.065-.138.118-.046.117-.119.24-.105.376.078.259.328.424.558.57.198.112.395.248.493.448.086.2.086.417.165.623.013.041.02.077.02.118-.158-.088-.237-.247-.369-.365-.105-.094-.243-.141-.374-.194-.171-.065-.362-.082-.54-.147-.111-.035-.184-.124-.262-.194a.691.691 0 01-.171-.277c-.086-.2-.119-.411-.217-.605-.066-.13-.257-.23-.237-.371.02-.112.237-.241.132-.312-.007-.006-.033 0-.04.006-.105.083-.151.206-.204.324-.111-.006-.295-.13-.322-.036-.033.095.204.071.303.118.072.035.092.112.118.176.04.106.125.195.131.312.014.106 0 .212.014.318a1.09 1.09 0 010 .206c-.112-.012-.21-.06-.323-.07-.21-.019-.42-.03-.63-.048-.152-.012-.237-.276-.35-.194-.038.024.027.082.027.123 0 .053-.026.1-.02.153 0 .047.047.089.04.136-.013.04-.118.064-.092.1.026.04.112 0 .145-.047.052-.065-.066-.147.006-.206.046-.041.105 0 .151.012.21.082.454-.012.664.076.25.088.44.276.638.43.177.158.381.293.552.464.06.059.099.123.118.2-.216.059-.46.076-.677.018-.177-.053-.361-.13-.46-.277-.085-.117-.033-.264-.033-.394.007-.07-.033-.135-.065-.194-.02-.041.032-.112-.014-.135-.046-.024-.131.023-.131.07-.007.065.131.089.131.16a.661.661 0 01-.138.34c-.078-.03-.157-.064-.236-.088-.073-.023-.171-.041-.217.006-.04.041-.046.123 0 .153.052.035.066-.088.118-.112.06-.035.138.03.184.065.112.094.217.2.316.306.072.076.17.111.256.17-.138.036-.283.047-.42.07a1.563 1.563 0 01-.868-.134c-.119-.048-.112-.212-.217-.253-.066-.024-.197 0-.191.064.007.077.178.047.237.112a.868.868 0 00.204.165c.13.064.289.088.407.176-.112.077-.237.13-.361.183-.092.035-.21.07-.303.011-.072-.053-.079-.153-.151-.194-.026-.017-.079-.035-.092-.017-.053.07.21.129.164.205-.026.042-.105.018-.151.036-.046.017-.079.076-.053.106.053.058.165-.018.244-.042.111-.029.223.03.328.006.092-.023.171-.07.25-.111.112-.053.237-.083.362-.112.19-.047.394-.03.591-.03.21-.006.408.065.612.083.388.017.782.035 1.157.14 0 .036-.007.072 0 .107-.086.047-.191.076-.276.123-.125.07-.138.241-.06.341.08.112.204.218.185.36-.027.134-.073.258-.092.393-.198-.088-.303-.27-.401-.435-.066-.13-.145-.253-.217-.376-.046-.089-.184-.112-.217-.212-.02-.082.072-.2 0-.247-.053-.036-.119.059-.165.1-.052-.041-.098-.082-.151-.112-.06-.035-.131-.006-.177.035-.04.036-.08.106-.04.136.066.064.204-.036.303-.024.052.03.072.082.105.13.072.111.223.164.263.294.033.117.039.235.039.353-.079-.077-.118-.177-.204-.248a.859.859 0 00-.328-.194 1.509 1.509 0 00-.585-.023c-.165.03-.323-.035-.474-.077-.02-.088.06-.147.112-.211 0-.012-.007-.036-.007-.047-.065-.006-.138.005-.17.064-.027.077-.014.153-.027.236.197.064.401.1.605.164.145.053.316.018.46.083.112.04.197.129.263.211.132.165.151.365.23.547a.757.757 0 01-.374-.123c-.1-.06-.323-.06-.296-.17.013-.048.111-.018.144-.054.007-.006.007-.03 0-.035-.026-.03-.092-.035-.131-.018-.04.018-.08.065-.066.106.013.036.046.065.066.1-.033.041-.092.083-.086.141.007.1.158.294.21.194.02-.04-.072-.07-.104-.105-.053-.065.046-.17.124-.124.112.047.191.13.277.206.072.065.164.106.256.153a2.481 2.481 0 01-.408.241c-.118.047-.263.088-.374.018-.138-.089-.191-.236-.263-.371-.053-.106-.151-.188-.224-.288-.092-.118-.164-.253-.282-.353a1.185 1.185 0 00-.48-.253c-.106-.023-.217-.023-.322-.041-.138-.03-.382-.165-.283-.259.026-.023.098.03.118 0 .013-.018-.006-.053-.033-.065-.026-.011-.059-.005-.085.006-.04.024-.053.077-.072.118-.132-.012-.29-.041-.27.03.013.046.105.011.158.017.144 0 .177.159.289.206.118.053.256.053.381.088.184.041.355.147.428.306-.1-.018-.198-.053-.303-.065A.556.556 0 002.06 6c-.066.059-.106.14-.184.194-.033.017-.1.03-.125-.012-.073-.076.006-.182-.04-.259-.033-.059-.164-.07-.184-.017-.013.04.066.064.086.1.013.058 0 .123.013.182.046.1.164.141.27.176a.13.13 0 01-.151.012c-.073-.047-.126-.176-.218-.159-.013 0-.026.024-.026.036.02.1.17.14.27.188.072.012.137-.006.21-.018.052.07.072.183.197.183.066 0 .138-.042.112-.089-.04-.07-.204-.047-.224-.14-.033-.06.027-.118.066-.16.092-.094.263-.111.388-.047.127.067.239.155.329.26.17.187.341.387.571.523.23.105.487.205.75.2.19.005.381-.048.572-.03 0 .106-.08.23.006.324.027.04.099.064.106.117-.08.065-.191.077-.296.07-.066-.005-.138-.029-.171-.087-.013-.053.02-.1.033-.153-.066-.036-.158.023-.138.088.039.135.184.235.341.241.106 0 .204-.035.303-.035.15.006.309-.018.447.053.17.088.256.258.388.382-.138.041-.283.059-.421.1-.224.059-.427.17-.657.194-.08.006-.138-.047-.184-.094-.171-.165-.224-.394-.369-.57-.072-.1-.197-.16-.282-.248l.098-.105c-.033-.036-.085-.065-.138-.036-.065.03-.04.106-.052.16-.04-.019-.086-.03-.119-.06-.02-.047-.006-.094-.006-.14-.053.005-.125.046-.099.1.073.146.27.17.381.281a.683.683 0 01.112.289c.027.123.06.247.073.37a.857.857 0 01-.277-.07 1.397 1.397 0 01-.427-.265c-.098-.1-.158-.224-.243-.33-.132-.152-.151-.352-.29-.505-.072-.089-.177-.153-.21-.259-.006-.065.06-.118.105-.159.047.012.086.03.132.035.026-.011.007-.04-.013-.052-.072-.06-.184-.036-.257-.083-.046-.047-.065-.106-.092-.159a.135.135 0 00-.046.012c-.013.07.04.124.086.177.059.053.006.135.006.2-.046.152.073.3.033.452-.164.012-.322-.011-.48 0-.144.012-.309.018-.427-.064a.627.627 0 01-.27-.406c-.02-.082.119-.182.06-.235-.027-.024-.105 0-.119.04-.013.054-.02.113-.04.165-.137-.04-.295-.04-.393.042-.007.006-.007.035 0 .04.059.054.17 0 .256 0 .04 0 .092 0 .118.036.119.141.053.353.21.477.152.129.382.111.56.194-.06.047-.132.082-.198.117-.066.036-.118.088-.177.136-.08.064-.23.023-.29.094a.058.058 0 000 .047c.053.064.185.04.263-.012.092-.059.158-.147.263-.2a.506.506 0 01.276-.07c.145.023.29.1.349.223.072.159.131.335.276.459.112.111.296.129.408.24.046.042.046.1.046.16-.204.04-.395-.042-.586-.1a1.105 1.105 0 00-.46-.042.562.562 0 00-.348.236c-.08.117-.086.259-.145.382-.033.076-.131.13-.223.124-.145-.048-.112-.23-.21-.312-.007-.006-.04-.012-.047-.006-.098.07.033.212.08.312a.454.454 0 01-.343-.206c-.065-.1.066-.253-.026-.318-.013-.006-.046-.012-.052 0-.08.065-.014.194.013.288.033.112.138.189.243.247a.896.896 0 00.513.071c.203-.047.342-.2.506-.306.112-.07.25-.117.388-.076.125.04.25.094.368.159-.092.052-.184.1-.257.17-.111.1-.17.235-.223.365-.085.2-.079.43-.178.623a.448.448 0 01-.322.218c-.111-.012-.184-.1-.25-.17-.072-.083-.184-.136-.276-.2-.04-.03 0-.1-.032-.124-.046-.036-.145.053-.106.106.046.064.145.082.217.123.119.07.19.182.257.294-.033.035-.105.059-.092.1.02.065.144.036.217.047.111.024.19.13.309.112.184-.012.295-.159.42-.265.04.094.053.212.152.277.072.059.17.088.223.165.026.094-.197.158-.138.229.033.035.112-.006.145-.041.039-.047.065-.1.092-.153.065.035.144.111.21.076.02-.011.033-.03.026-.047-.033-.076-.19-.047-.236-.123-.152-.218-.237-.489-.152-.741.046-.16.178-.283.31-.389.15-.117.315-.223.499-.294.118-.047.243-.047.368-.047.164 0 .316-.064.473-.1.138-.03.283-.017.421-.006.112.012.23.03.335.07.08.03.138.1.132.177-.02.141-.125.247-.23.341-.086.077-.171.165-.296.189-.263.059-.467.235-.723.294a.635.635 0 01-.316-.012c-.111-.041-.203-.147-.19-.265.026-.047.079-.076.111-.117.02-.041-.006-.094.027-.124.046-.041.144 0 .19-.059.033-.035.027-.088-.026-.106-.066-.017-.118.042-.158.077-.085.082-.322 0-.315.106 0 .047.125.035.131.088.013.065-.085.1-.118.159-.013.053 0 .112.007.165.026.117.138.205.243.276.125.082.289.088.44.07.184-.017.329-.152.513-.146-.007.094-.04.188-.026.282.02.141.19.223.21.365.013.117.072.229.053.347-.014.07-.152.129-.106.182.073.082.184-.106.21-.2.02-.094-.104-.206-.039-.282.053-.06.178-.018.244-.07.032-.03.072-.077.039-.107-.007-.006-.033 0-.046.006-.04.018-.046.07-.085.082-.053.018-.132.006-.165-.04-.046-.06-.085-.124-.125-.183-.04-.059-.013-.135.02-.194.06-.106.184-.165.283-.241.059-.042.125-.095.21-.095.19-.005.381.042.572.065.092.006.158.07.23.112.131.076.29.13.408.223a.341.341 0 01.111.295 2.765 2.765 0 00-.013.464c.007.094.092.194.072.318 0 .17-.039.294-.085.388zm3.537.259c.013.07.131.27.177.33a.673.673 0 01-.25-.113c-.125-.106-.092-.229-.098-.511 0-.036.02-.224.065-.247.053.135.08.412.106.54zm2.241-3.094c-.17.03-.309.141-.414.259-.131.147-.144.359-.316.476-.243.153-.558.153-.808.294-.112.06-.21.141-.316.206.132-.223.401-.323.632-.453.361-.188.585-.511.92-.723a.939.939 0 01.605-.124c-.099.047-.204.042-.303.065zm1.341.806c-.04.153-.111.294-.138.447-.02.1-.006.2 0 .3-.197-.088-.296-.324-.21-.506.072-.165.177-.312.23-.482.046-.136.033-.277.072-.412.105.2.105.435.046.653zm.388.547c.217.023.401-.106.579-.206.02.053-.04.094-.066.13a.907.907 0 01-.533.329c-.111.023-.25-.006-.302-.106-.04-.106-.02-.224.007-.33.092.077.184.171.315.183zm.296-2.082c.013.1.026.23-.092.282.026-.094.026-.2.092-.282zm-.598.359c.223.064.46.07.69.023.21-.047.408-.13.585-.235.056-.032.116-.06.178-.083-.066.083-.165.13-.257.183a2.03 2.03 0 01-.664.247 2.68 2.68 0 01-.539.041c-.092 0-.138-.076-.204-.124-.111-.094-.282-.123-.361-.253.204.036.375.148.572.2zM11.63 9.11c.164-.123.355-.235.578-.247-.085.07-.197.106-.289.17-.138.083-.237.207-.368.295.007-.077.007-.165.079-.218zm-.953.659c.19-.076.374-.188.486-.347.092-.118.145-.253.21-.382.033.111.007.223-.02.335-.052.17-.13.353-.295.459-.158.106-.368.182-.565.123a.451.451 0 01-.204-.13c.138-.011.27-.011.388-.058zm-.296-1.6c-.309.206-.533.524-.579.865-.02.223-.02.464.086.676.092.206.263.4.506.465.165.028.334.03.5.006.256-.06.453-.236.618-.412.15-.153.27-.33.447-.465.092-.076.19-.147.302-.194.21-.082.454-.088.67-.03.224.065.441.183.553.371a.67.67 0 01.079.389c-.086-.065-.086-.177-.152-.253a.994.994 0 00-.572-.312c-.223-.041-.447.018-.644.1a1.763 1.763 0 00-.539.382c-.17.188-.394.33-.618.465-.21.106-.434.23-.565.417a.3.3 0 01-.079.077c-.079-.27-.27-.5-.42-.735-.198-.265-.349-.57-.336-.888-.007-.477.401-.918.9-1.053a.531.531 0 01-.157.13zm1.038-.482c-.315.07-.63.135-.94.217-.295.089-.571.242-.749.47a1.391 1.391 0 00-.256.53c-.053.289-.013.588.118.853.158.377.454.694.618 1.07.033.106.02.2.02.306a.648.648 0 01-.046.206 3.865 3.865 0 01-.105-.288c-.04-.141-.119-.27-.185-.4-.138-.282-.348-.535-.486-.823a1.475 1.475 0 01.053-1.559c.23-.376.677-.617 1.143-.676.237-.041.474-.03.71-.03.184 0 .368-.006.553.03-.145.07-.303.064-.448.094zm.671.682c-.131-.047-.197-.165-.27-.265-.052-.076-.124-.14-.17-.217.046-.006.092-.03.144-.018.066.053.099.124.138.194.053.1.112.2.158.306zm-.381-.87c-.296-.03-.592-.071-.888-.065-.243 0-.48.053-.71.123-.44.147-.821.441-.999.836-.184.358-.19.77-.105 1.152.06.265.243.489.388.73-.171-.1-.283-.253-.395-.406a1.86 1.86 0 01-.289-.77A1.542 1.542 0 019.1 7.945c.112-.136.276-.224.427-.318.112-.065.244-.112.368-.159.283-.106.592-.135.888-.206.204-.053.42-.047.631-.04.125.005.243.046.361.082.112.029.218.064.33.1.118.035.242.058.354.105-.25.053-.5 0-.75-.011zm.329-.318a.516.516 0 01-.132-.059c.237-.035.467.018.69.088.158.053.329.065.48.13-.348.035-.703-.059-1.039-.159zm1.8.047c-.282.088-.584.006-.867-.059-.17-.047-.348-.076-.506-.159.118-.035.243-.029.361-.029.283 0 .54.13.829.141.197.012.388-.053.572-.1-.112.1-.25.159-.388.206zm1.894-.694c-.145 0-.296 0-.434.047-.151.053-.263.17-.381.265-.19.17-.408.33-.664.4.079-.106.21-.165.302-.253.197-.183.414-.347.67-.459.159-.07.343-.041.514-.041.006.012 0 .035-.007.041zm9.539-4.082c0-.065-.085-.082-.21-.082-.224 0-1.006.03-1.269.03-.342 0-.723-.03-1.11-.03-.145 0-.204.023-.204.094 0 .065.105.082.21.106.204.04.25.159.25.264 0 .136-.046.318-.165.553-.164.33-1.656 2.659-1.775 2.912-.19-.294-1.847-2.847-2.011-3.165-.085-.147-.145-.276-.145-.358 0-.083.06-.17.165-.189.177-.04.263-.053.263-.117 0-.065-.06-.094-.178-.094-.532 0-1.019.029-1.268.029-.388 0-1.276-.03-1.493-.03-.144 0-.223.03-.223.095 0 .076.085.094.177.094.145 0 .342.065.5.135.223.118.519.382.815.77.414.554 1.998 2.883 2.084 3.047.15.306.27.542.27 1.112v.87c0 .171 0 .612-.034 1.06-.026.305-.131.54-.368.582-.105.023-.25.04-.414.04-.131 0-.19.03-.19.083 0 .082.092.106.262.106.44 0 1.184-.03 1.48-.03.322 0 1.064.03 1.807.03.151 0 .25-.03.25-.106 0-.053-.059-.082-.19-.082a6.64 6.64 0 01-.592-.041c-.355-.042-.46-.277-.487-.583-.033-.447-.033-.888-.033-1.058v-.871c0-.347 0-.676.178-1.059.21-.453 1.867-2.94 2.261-3.364.263-.288.388-.412.638-.518.177-.082.401-.129.52-.129.137 0 .23-.03.23-.106zm8.96 3.953c-.388 0-1.019.029-1.387.029-.355 0-1.098-.03-1.715-.03-.165 0-.25.024-.25.106 0 .065.072.083.177.083.165 0 .368.012.46.03.388.076.5.24.507.605.013.318.013.718.013 1.247v.994c0 .182-.046.318-.224.394-.282.118-.697.118-1.006.118-2.498 0-4.115-1.706-4.115-3.982 0-1.3.428-2.094 1.091-2.594.829-.612 1.69-.659 2.34-.659 1.335 0 2.282.488 2.637.824.309.294.368.635.4.876.014.082.034.135.12.135.091 0 .13-.053.13-.223 0-1.324.086-1.618.086-1.735 0-.077-.026-.118-.164-.13a9.32 9.32 0 01-.934-.117 15.988 15.988 0 00-2.097-.17c-.992 0-2.044.076-3.181.687-1.078.583-2.058 1.77-2.058 3.465 0 2.923 2.57 4.152 5.47 4.152.92 0 2.083-.117 2.852-.476.145-.077.151-.094.151-.383V8.5c0-.53 0-.953.014-1.271.013-.37.131-.553.447-.606.144-.023.223-.03.322-.03.085 0 .151-.023.151-.082 0-.088-.086-.105-.237-.105zm10.268 0c-.387 0-1.019.029-1.387.029-.355 0-1.098-.03-1.715-.03-.165 0-.25.024-.25.106 0 .065.072.083.177.083.165 0 .369.012.46.03.388.076.5.24.507.605.013.318.013.718.013 1.247v.994c0 .182-.046.318-.224.394-.282.118-.697.118-1.005.118-2.498 0-4.116-1.706-4.116-3.982 0-1.3.428-2.094 1.092-2.594.828-.612 1.69-.659 2.34-.659 1.334 0 2.28.488 2.636.824.309.294.368.635.4.876.014.082.034.135.12.135.091 0 .13-.053.13-.223 0-1.324.086-1.618.086-1.735 0-.077-.026-.118-.164-.13a9.318 9.318 0 01-.934-.117 15.991 15.991 0 00-2.097-.17c-.992 0-2.044.076-3.181.687-1.078.583-2.058 1.77-2.058 3.465 0 2.923 2.57 4.152 5.47 4.152.92 0 2.083-.117 2.852-.476.145-.077.152-.094.152-.383V8.5c0-.53 0-.953.013-1.271.013-.37.131-.553.447-.606.144-.023.223-.03.322-.03.085 0 .151-.023.151-.082 0-.088-.085-.105-.236-.105zm4.983-4.035c-.71 0-1.453.03-1.82.03-.33 0-1.079-.03-1.703-.03-.178 0-.263.023-.263.094 0 .076.072.094.204.094.164 0 .368.012.46.03.388.076.486.24.506.605.026.341.026.635.026 2.247v1.865c0 .976 0 1.811-.059 2.252-.046.306-.105.541-.342.582a1.96 1.96 0 01-.427.042c-.145 0-.19.03-.19.082 0 .077.085.106.236.106.237 0 .546-.024.815-.024.283-.011.546-.011.677-.011.296 0 .71.029 1.157.064.447.036.934.065 1.36.065 2.19 0 3.42-.753 3.965-1.247a3.98 3.98 0 001.288-2.953c0-1.258-.559-2.14-1.15-2.688-1.289-1.205-3.26-1.205-4.74-1.205zm3.313 6.84c-.71.553-1.512.765-2.721.765-.934 0-1.394-.224-1.552-.424-.092-.117-.118-.54-.131-.805a56.08 56.08 0 01-.026-2.141V5.269c0-.835 0-1.758.013-2.117 0-.118.033-.17.144-.212.092-.04.533-.076.77-.076.92 0 2.274.13 3.359 1.059.506.435 1.137 1.3 1.137 2.646 0 1.094-.237 2.059-.993 2.641zm20.563.97c-.145 0-.322-.011-.5-.04-.25-.053-.591-.2-1.038-1.153-.756-1.612-2.65-5.93-2.932-6.511-.119-.241-.191-.341-.296-.341-.118 0-.19.117-.329.423l-2.971 6.646c-.138.318-.276.57-.48.736a3.355 3.355 0 01-.716-.518c-.697-.659-1.513-1.6-2.57-2.782 1.196-.87 1.564-1.588 1.564-2.37 0-.712-.474-1.247-.802-1.453-.638-.394-1.433-.453-2.176-.453-.368 0-1.269.03-1.67.03-.25 0-.992-.03-1.623-.03-.178 0-.264.023-.264.094 0 .076.073.094.204.094.165 0 .368.012.46.03.388.076.487.24.507.605.026.342.026.635.026 2.247V7.3c0 .976 0 1.811-.06 2.252-.045.306-.104.541-.341.583a2 2 0 01-.427.04c-.145 0-.191.03-.191.083 0 .077.086.106.237.106.473 0 1.216-.03 1.446-.03.177 0 1.052.03 1.742.03.151 0 .237-.03.237-.106 0-.053-.046-.082-.145-.082-.145 0-.401-.024-.579-.041-.355-.042-.427-.277-.46-.583-.059-.447-.059-1.282-.059-2.264v-.141c0-.065.033-.083.092-.083l1.032.024c.086 0 .151.012.21.076.152.16.697.877 1.17 1.459.665.818 1.112 1.312 1.624 1.559.158.076.316.13.52.159.033.029.098.04.197.04h1.67a.446.446 0 00.17-.023c.277.012.572.024.816.024.131 0 .203-.024.203-.106 0-.065-.032-.083-.177-.083H66.5c-.368 0-.473-.135-.473-.329 0-.13.06-.382.178-.647l.637-1.511c.027-.065.046-.083.105-.083h2.637c.059 0 .092.024.118.077l.947 2.246c.059.13-.027.224-.106.242-.118.011-.164.03-.164.094 0 .076.145.076.355.082.947.024 1.808.024 2.235.024.44 0 .546-.024.546-.106 0-.089-.06-.1-.158-.1zM60.993 6.394c-.21.135-.368.182-.842.182-.295 0-.65-.03-.9-.106-.086-.029-.105-.076-.105-.188V3.058c0-.082.026-.13.105-.147.118-.03.328-.041.624-.041.697 0 1.808.435 1.808 1.935.007.864-.335 1.353-.69 1.588zm8.368.688h-2.176c-.046 0-.06-.03-.046-.076L68.23 4.4c.013-.041.033-.094.073-.094.04 0 .046.053.059.094l1.065 2.617c.006.03-.007.065-.066.065zm7.31-1.535l-.329-.224c-.98-.664-1.255-1.035-1.255-1.523 0-.635.532-1.088 1.406-1.088.77 0 1.111.318 1.289.518.25.276.309.605.309.7 0 .129.033.188.118.188.092 0 .132-.083.132-.318 0-.823.046-1.135.046-1.27 0-.077-.06-.106-.165-.13a6.195 6.195 0 00-1.57-.182c-1.644 0-2.735.835-2.735 2 0 .858.447 1.6 1.748 2.511l.546.382c.98.689 1.157 1.177 1.157 1.694 0 .56-.52 1.206-1.584 1.206-.737 0-1.434-.288-1.69-1.07-.06-.183-.105-.4-.105-.542 0-.082-.013-.182-.118-.182-.092 0-.132.118-.145.277-.013.17-.06.805-.06 1.388 0 .235.034.288.224.358.506.2 1.039.277 1.73.277.624 0 1.288-.094 1.88-.435.854-.5 1.11-1.23 1.11-1.841 0-1-.506-1.73-1.939-2.694zm7.139 4.635a6.61 6.61 0 01-.605-.041c-.355-.042-.44-.236-.473-.518-.046-.453-.046-1.294-.046-2.317V5.44c0-1.612 0-1.906.026-2.247.026-.37.118-.553.44-.606.118-.02.236-.03.356-.029.118 0 .19-.024.19-.106 0-.065-.092-.082-.25-.082-.447 0-1.15.03-1.446.03-.342 0-1.091-.03-1.538-.03-.19 0-.283.023-.283.082 0 .082.073.106.19.106.146 0 .297.012.428.041.263.053.381.235.401.594.026.341.026.635.026 2.247v1.865c0 1.029 0 1.864-.059 2.305-.032.306-.105.488-.341.53a2 2 0 01-.428.04c-.144 0-.19.03-.19.083 0 .077.085.106.236.106.474 0 1.216-.03 1.492-.03.323 0 1.065.03 1.848.03.131 0 .223-.03.223-.106-.013-.047-.072-.082-.197-.082zm7.52-1.459c-.092 0-.118.065-.131.159-.026.2-.165.5-.31.635-.295.288-.755.294-1.386.294-.92 0-1.23-.076-1.433-.235-.25-.188-.25-.924-.25-2.276V5.44c0-1.612 0-1.906.026-2.247.026-.37.118-.553.44-.606a3.22 3.22 0 01.46-.029c.145 0 .211-.024.211-.094 0-.077-.085-.094-.25-.094-.46 0-1.328.03-1.61.03-.322 0-1.065-.03-1.624-.03-.177 0-.263.023-.263.094 0 .076.073.094.204.094.151 0 .296.012.388.03.388.076.486.24.506.605.026.341.026.635.026 2.247v1.865c0 .976 0 1.811-.059 2.252-.046.306-.105.541-.342.582a1.96 1.96 0 01-.427.042c-.145 0-.19.03-.19.082 0 .077.085.106.236.106.237 0 .546-.024.815-.024.283-.011.546-.011.677-.011.487 0 .914.011 1.446.029.533.012 1.15.03 1.999.03.618 0 .677-.053.743-.289.092-.306.177-1.1.177-1.217.02-.112.007-.165-.079-.165z" fill="#32448C"/><path d="M17.303 13.892h1.124v.082a.632.632 0 00-.256.035.16.16 0 00-.085.112c-.014.053-.02.176-.02.382v.247c-.033-.005-.06-.005-.086-.005-.098 0-.23.029-.387.082-.217.07-.421.112-.605.112-.375 0-.684-.112-.934-.33-.25-.217-.374-.5-.374-.835 0-.335.118-.63.355-.876.236-.253.558-.377.96-.377.348 0 .637.118.867.347a.708.708 0 00.079-.258h.092v.77h-.085a.913.913 0 00-.303-.57.9.9 0 00-.605-.212.94.94 0 00-.644.247c-.184.164-.276.453-.276.87 0 .418.086.706.263.883.178.17.394.258.657.258a.893.893 0 00.362-.07.433.433 0 00.223-.177c.04-.07.06-.159.06-.264a.751.751 0 00-.027-.253c-.02-.042-.046-.07-.085-.083a.791.791 0 00-.21-.023h-.06v-.094zm14.607.14h-.993l-.066.147c-.098.218-.15.353-.15.418 0 .07.026.123.078.159a.37.37 0 00.204.053v.076h-.776v-.076c.119-.018.204-.053.256-.112.06-.059.125-.176.204-.359.007-.017.04-.082.092-.2l.756-1.623h.073l.874 1.858.118.248c.026.052.066.1.112.129a.42.42 0 00.204.059v.076H31.87v-.076a.85.85 0 00.257-.024c.046-.018.065-.047.065-.1a.86.86 0 00-.085-.223l-.197-.43zm-.033-.082l-.46-.994-.46.994h.92zm14.515.536l.953-1.935h.802v.077h-.099a.702.702 0 00-.25.029c-.039.018-.065.053-.078.106-.014.053-.02.176-.02.37v1.147c0 .183.006.306.013.36.007.052.04.099.08.128.038.03.124.042.236.042h.118v.076h-1.249v-.076h.092a.53.53 0 00.23-.036.17.17 0 00.086-.117c.013-.053.02-.177.02-.37v-1.489l-1.033 2.094h-.092l-1.038-2.094v1.37c0 .189.006.318.02.383a.29.29 0 00.117.176.517.517 0 00.283.088v.077h-.946v-.076a.509.509 0 00.27-.083.298.298 0 00.124-.182c.013-.07.026-.206.026-.394v-1.018c0-.188-.006-.306-.02-.359-.013-.053-.039-.094-.078-.111a.744.744 0 00-.257-.03h-.065v-.082h.795l.96 1.93zM60 12.633v-.077h1.196v.077h-.052a.698.698 0 00-.25.03c-.04.017-.066.052-.08.105a2.194 2.194 0 00-.019.37v1.148c0 .182.007.305.013.358.007.053.033.1.08.13.045.03.124.041.236.041h.079v.076h-1.197v-.076h.08a.51.51 0 00.23-.035.162.162 0 00.078-.118c.007-.053.02-.176.02-.37v-1.147c0-.189-.007-.306-.02-.36-.013-.052-.04-.093-.079-.111a.744.744 0 00-.256-.03h-.06v-.011zm15.408 2.311l-1.847-2.188v1.624c0 .135.006.223.02.264.013.041.059.083.124.118a.696.696 0 00.31.053v.076h-.974v-.076a.787.787 0 00.283-.059c.066-.03.105-.07.118-.106.014-.035.02-.13.02-.27v-1.241c0-.177-.006-.3-.026-.36-.02-.058-.046-.1-.086-.117-.039-.018-.13-.023-.269-.023v-.083h.77l1.544 1.83v-1.4a.537.537 0 00-.033-.218c-.02-.041-.072-.076-.145-.1a.87.87 0 00-.263-.035v-.077h.947v.077a.728.728 0 00-.263.059c-.066.03-.105.064-.118.105a.72.72 0 00-.026.212v1.935h-.086zm14.034-1.052h1.124v.082a.633.633 0 00-.256.035.158.158 0 00-.086.112c-.013.053-.02.176-.02.382v.247c-.032-.005-.058-.005-.085-.005-.099 0-.23.029-.388.082-.217.07-.42.112-.605.112-.374 0-.683-.112-.933-.33-.25-.217-.375-.5-.375-.835 0-.335.119-.63.355-.876.237-.247.56-.377.96-.377.349 0 .638.118.868.347a.708.708 0 00.079-.258h.092v.77h-.092a.913.913 0 00-.303-.57.9.9 0 00-.605-.212.94.94 0 00-.644.247c-.184.164-.276.453-.276.87 0 .418.086.706.263.883a.887.887 0 00.657.258.893.893 0 00.362-.07.463.463 0 00.224-.177.54.54 0 00.059-.264.753.753 0 00-.026-.253c-.02-.047-.046-.07-.086-.083a.788.788 0 00-.21-.023h-.06v-.094h.007z" fill="#32448C"/></svg>