<svg width="29" height="28" fill="none" xmlns="http://www.w3.org/2000/svg"><path d="M7.617 25.155v-4.517a.776.776 0 00-.432-.696c-4.142-2.047-5.008-5.509-5.008-8.085 0-5.454 5.1-9.68 12.059-9.68s12.058 4.226 12.058 9.68-5.1 9.678-12.059 9.678c-.22 0-.44-.011-.67-.024h0l-.14-.008a.742.742 0 00-.48.128s0 0 0 0l-5.328 3.524zM6.065 26.6a.776.776 0 001.204.647l6.32-4.18c.208.011.425.021.647.021 7.68 0 13.61-4.768 13.61-11.23 0-6.463-5.93-11.232-13.61-11.232S.625 5.394.625 11.857c0 4.066 1.931 7.344 5.44 9.253v5.489z" fill="#CFDDFF" stroke="#CFDDFF" stroke-width=".75"/></svg>