<svg width="13" height="13" fill="none" xmlns="http://www.w3.org/2000/svg"><path d="M5.79 1.952h1.14l-1.06.77.405 1.245-1.06-.77-1.06.77.35-1.076a12.569 12.569 0 00-2.424 2.702h.365l-.675.49a12.8 12.8 0 00-.302.534l.322.992-.601-.437c-.15.317-.286.64-.409.97l.355 1.093h1.31l-1.06.77.405 1.245-1.06-.77-.634.461A12.62 12.62 0 000 12.5h12.5V0c-2.47 0-4.771.716-6.71 1.952zm.485 9.298l-1.06-.77-1.06.77.405-1.246-1.06-.77h1.31l.405-1.245.405 1.246h1.31l-1.06.77.405 1.245zM5.87 6.363l.405 1.246-1.06-.77-1.06.77.405-1.246-1.06-.77h1.31l.405-1.245.405 1.245h1.31l-1.06.77zm4.888 4.887l-1.06-.77-1.059.77.405-1.246-1.06-.77h1.31l.405-1.245.404 1.246h1.31l-1.06.77.405 1.245zm-.404-4.887l.404 1.246-1.06-.77-1.059.77.405-1.246-1.06-.77h1.31l.405-1.245.404 1.245h1.31l-1.06.77zm0-3.641l.404 1.245-1.06-.77-1.059.77.405-1.245-1.06-.77h1.31L9.699.706l.404 1.246h1.31l-1.06.77z" fill="#0052B4"/></svg>