<svg width="77" height="75" fill="none" xmlns="http://www.w3.org/2000/svg"><path fill-rule="evenodd" clip-rule="evenodd" d="M70.456 5.437A7.62 7.62 0 0175.46 8.5a7.61 7.61 0 011.387 5.7L72.01 45.06c-.592 3.777-3.867 6.485-7.58 6.485-.39 0-.784-.03-1.182-.092l-16.333-2.557v17.733c0 4.23-3.441 7.672-7.672 7.672H7.983c-4.23 0-7.672-3.441-7.672-7.672V35.396c0-4.228 3.441-7.668 7.672-7.668h19.575l3.247-20.731a7.618 7.618 0 013.068-5.007A7.609 7.609 0 0139.575.609l10.733 1.687a1.495 1.495 0 01-.464 2.954L39.11 3.563a4.638 4.638 0 00-3.477.844A4.646 4.646 0 0033.76 7.46l-3.175 20.268h8.66c4.23 0 7.672 3.44 7.672 7.668V45.87l16.794 2.63a4.692 4.692 0 005.347-3.901l4.837-30.86a4.638 4.638 0 00-.848-3.476 4.65 4.65 0 00-3.053-1.87L61.59 7.076a1.494 1.494 0 11.462-2.954l8.404 1.314zM39.243 71.311c2.582 0 4.682-2.1 4.682-4.682V35.396c0-2.58-2.1-4.678-4.682-4.678H7.983A4.685 4.685 0 003.3 35.396V66.63a4.688 4.688 0 004.683 4.682h31.261zm-1.876-57.916a4.4 4.4 0 015.012-3.656l.003.001h.002a4.395 4.395 0 013.648 5.01 4.39 4.39 0 01-5.008 3.65 4.354 4.354 0 01-2.866-1.745 4.352 4.352 0 01-.79-3.26zm4.117 2.051c.76.119 1.476-.4 1.594-1.157a1.401 1.401 0 00-1.374-1.612c-.676 0-1.274.494-1.383 1.182a1.38 1.38 0 00.251 1.032c.22.3.543.498.912.555zm6.523 12.56a4.342 4.342 0 01-.784-3.258 4.389 4.389 0 015.009-3.65h-.001c1.158.18 2.177.801 2.867 1.748s.97 2.105.79 3.262a4.4 4.4 0 01-5.012 3.65 4.356 4.356 0 01-2.87-1.752zm4.927-2.363a1.387 1.387 0 00-.252-1.035 1.385 1.385 0 00-1.127-.573 1.397 1.397 0 00-1.13 2.212c.22.302.544.5.911.557a1.403 1.403 0 001.598-1.161zm4.639 14.926a4.355 4.355 0 002.866 1.748 4.354 4.354 0 003.26-.79 4.352 4.352 0 001.749-2.864 4.353 4.353 0 00-.79-3.26 4.388 4.388 0 00-7.875 1.903c-.18 1.158.1 2.317.79 3.263zm2.164-2.8a1.394 1.394 0 011.593-1.158c.368.057.692.255.912.556a1.388 1.388 0 01-.304 1.945c-.301.22-.67.309-1.038.251a1.384 1.384 0 01-.912-.555 1.388 1.388 0 01-.251-1.04zM12.17 36.318A4.388 4.388 0 007.787 40.7a4.388 4.388 0 004.384 4.382 4.39 4.39 0 004.389-4.383 4.39 4.39 0 00-4.389-4.381zm0 5.774a1.395 1.395 0 01-1.394-1.392 1.397 1.397 0 012.793 0c0 .767-.627 1.392-1.399 1.392zm7.11 8.304a4.388 4.388 0 014.384-4.382 4.388 4.388 0 014.384 4.382 4.39 4.39 0 01-4.384 4.387 4.39 4.39 0 01-4.384-4.387zm2.99 0c0 .77.625 1.397 1.394 1.397a1.395 1.395 0 10-1.394-1.396zm12.781-14.032a4.389 4.389 0 00-4.384 4.382 4.388 4.388 0 004.384 4.382 4.39 4.39 0 004.388-4.382 4.39 4.39 0 00-4.388-4.382zm0 5.775a1.395 1.395 0 01-1.394-1.393 1.397 1.397 0 012.793 0c0 .768-.628 1.392-1.399 1.392zM7.787 61.279a4.388 4.388 0 014.384-4.382 4.39 4.39 0 014.389 4.382 4.39 4.39 0 01-4.389 4.383 4.388 4.388 0 01-4.384-4.383zm2.99 0a1.397 1.397 0 002.793 0 1.397 1.397 0 00-2.793 0zm24.275-4.336a4.388 4.388 0 00-4.384 4.383 4.389 4.389 0 004.384 4.382 4.39 4.39 0 004.388-4.383 4.39 4.39 0 00-4.388-4.382zm0 5.775a1.395 1.395 0 01-1.394-1.393 1.397 1.397 0 012.793 0c0 .768-.628 1.392-1.399 1.392zm20.713-56.55l-.026-.004a1.495 1.495 0 11.492-2.949l.026.004a1.495 1.495 0 01-.492 2.949z" fill="#87E389"/></svg>