<svg width="72" height="71" fill="none" xmlns="http://www.w3.org/2000/svg"><path d="M7.79 25.854L.587 9.502a1.378 1.378 0 011.946-1.75c8.885 5.09 19.922 5.09 28.807 0a31.774 31.774 0 0115.773-4.2c4.747 0 9.441 1.073 13.71 3.117V3.288A3.035 3.035 0 0163.854.257h4.134a3.035 3.035 0 013.031 3.031v66.14c0 .76-.617 1.378-1.377 1.378H62.2a1.378 1.378 0 01-1.378-1.378v-7.441a1.378 1.378 0 112.756 0v6.063h4.685V44.855h-4.685v6.109a1.378 1.378 0 01-2.756 0v-6.49c-8.76-4.702-19.459-4.577-28.113.382a31.774 31.774 0 01-15.773 4.2 31.776 31.776 0 01-15.774-4.2 1.378 1.378 0 01-.586-1.726L7.79 25.854zM67.988 3.013h-4.134a.276.276 0 00-.275.275v4.28h4.685v-4.28a.276.276 0 00-.276-.275zm.276 7.312h-4.685v31.774h4.685V10.325zM31.34 42.465a31.774 31.774 0 0115.773-4.199c4.747 0 9.441 1.072 13.71 3.116V18.953c-8.76-4.703-19.459-4.577-28.113.382a1.378 1.378 0 11-1.37-2.391 31.776 31.776 0 0115.773-4.199c4.747 0 9.441 1.073 13.71 3.117V9.758c-8.76-4.703-19.459-4.575-28.113.384a31.774 31.774 0 01-15.773 4.2c-4.23 0-8.418-.852-12.3-2.483l5.913 13.426c.152.345.156.738.01 1.086L3.599 43.046c8.69 4.502 19.21 4.308 27.742-.58z" fill="#87E389"/><path d="M62.201 55.098c.363 0 .718.147.975.403.256.257.403.612.403.975 0 .362-.147.718-.403.974a1.389 1.389 0 01-.975.403c-.362 0-.718-.147-.974-.403a1.389 1.389 0 01-.403-.974c0-.363.147-.718.403-.975a1.39 1.39 0 01.974-.403zM27.013 19.057c.364 0 .718.147.975.404.256.256.403.611.403.974 0 .362-.147.718-.403.974-.257.256-.61.404-.975.404-.362 0-.717-.148-.974-.404a1.389 1.389 0 01-.404-.974c0-.363.148-.718.404-.974.257-.257.612-.404.974-.404z" fill="#87E389"/></svg>