<svg width="75" height="75" fill="none" xmlns="http://www.w3.org/2000/svg"><path d="M14.857 24.51c.34.591 1.096.795 1.688.456l4.284-2.474a1.236 1.236 0 00.452-1.689l-3.091-5.356a1.236 1.236 0 00-1.69-.452l-4.284 2.473a1.237 1.237 0 00-.452 1.69l3.093 5.352zm1.812-6.758l1.854 3.216-2.141 1.236-1.855-3.215 2.142-1.237zm2.183 8.734l2.142-1.237 1.237 2.142-2.142 1.236-1.236-2.141zm26.642-12.651c.562.325 1.2.496 1.85.495a3.693 3.693 0 003.219-1.855l.617-1.07a3.712 3.712 0 00-6.43-3.71l-.619 1.07a3.713 3.713 0 001.363 5.07zm.786-3.834l.618-1.07a1.238 1.238 0 112.14 1.237l-.618 1.07a1.237 1.237 0 01-2.14-1.236zm-4.33 7.496l1.238-2.142 2.141 1.237-1.236 2.142-2.142-1.237z" fill="#87E389"/><path d="M74.457 16.943a6.131 6.131 0 00-2.882-3.757L59.24 6.064a6.184 6.184 0 00-5.595-3.604h-.648L50.16.821a6.176 6.176 0 00-8.008 1.64H39.17A6.176 6.176 0 0031.164.818l-2.937 1.693a6.136 6.136 0 00-4.284 2.48l-.517.297-1.316-.758a6.165 6.165 0 00-8.44 2.257l-3.586 6.208-.335.19a6.152 6.152 0 00-3.07 5.7l-5.374 9.317a6.182 6.182 0 002.256 8.457l15.102 8.719a6.193 6.193 0 003.053 4.699l1.012.586v2.498a6.191 6.191 0 006.183 6.183h.35l.484.84a6.126 6.126 0 003.756 2.88 6.118 6.118 0 004.687-.62l2.473-1.427 2.472 1.419c.179.103.364.187.55.273a12.037 12.037 0 00.123 9.027l1.011 2.448h2.681l-1.424-3.408a9.562 9.562 0 01.037-7.5c.04 0 .08.01.123.01a6.147 6.147 0 002.42-.51 11.984 11.984 0 00.138 8.969l1.029 2.439h2.684l-1.44-3.408a9.523 9.523 0 011.139-9.41 1.237 1.237 0 00-.115-1.616l-8.657-8.656a3.141 3.141 0 010-4.434 3.215 3.215 0 014.435 0l11.13 11.13 1.748-1.75-1.172-1.171a6.08 6.08 0 00.254-1.708v-3.234a6.117 6.117 0 002.312-2.662 11.125 11.125 0 012.635 7.182v19.736h2.473V54.448a13.582 13.582 0 00-3.339-8.928l-1.268-1.528a6.015 6.015 0 00-.576-1.978l11.767-20.386a6.117 6.117 0 00.626-4.685zm-49.255-8.3a3.71 3.71 0 01.154-1.082c.11-.337.266-.657.461-.952a3.684 3.684 0 013.095-1.676h11.72l-5.565 9.646a1.153 1.153 0 00-.055-.215L32.539 8.18a1.236 1.236 0 00-2.298 0l-2.473 6.183a1.235 1.235 0 001.143 1.7h4.947c.133-.003.266-.028.391-.073l-1.628 2.82v-.275h-2.473v2.474h1.205l-6.151 10.655V8.643zm6.83 4.947h-1.294l.647-1.618.647 1.618zM15.811 8.025a3.699 3.699 0 015.062-1.353l.077.045-6.576 3.792 1.437-2.484zm3.161 34.678L4.797 34.519a3.718 3.718 0 01-1.36-5.077l4.273-7.413 2.7 4.682a3.673 3.673 0 00-3.598 1.828l-1.236 2.142a1.237 1.237 0 00.458 1.69l5.355 3.092a1.237 1.237 0 001.689-.454l1.062-1.839 4.975 8.63c.02.041.041.083.065.123l.066.112a5.97 5.97 0 00-.274.666v.002zm-8.323-13.379l1.072.618c.592.342.794 1.098.453 1.69l-.618 1.071-3.216-1.855.619-1.071a1.237 1.237 0 011.688-.453h.002zm-1.02-8.933a3.783 3.783 0 01-.469-1.312l-.007-.072a3.688 3.688 0 011.82-3.676l.631-.36a.951.951 0 00.137-.09l10.995-6.34c0 .034-.008.066-.008.101V35.95l-2.066 3.579L9.629 20.39zm19.282 36.48a3.71 3.71 0 01-3.71-3.71v-1.07l8.286 4.78h-4.576zm8.038 3.432a3.669 3.669 0 01-4.78-.958h5.596l.423.247-1.239.711zm20.405-7.653l-.907-.907.037-.053.865-1.509.005 2.469zm2.473-6.271v-.483l.335-.582a3.66 3.66 0 01-.335 1.065zM71.692 20.39L59.58 41.364l-.032.057-4.913 8.515-5.024-5.024a5.61 5.61 0 00-7.932 7.932l7.003 7.002a3.657 3.657 0 01-4.319.455L22.946 47.935a3.718 3.718 0 01-1.36-5.067l22.26-38.552a3.72 3.72 0 015.077-1.36l21.42 12.366a3.699 3.699 0 011.349 5.07z" fill="#87E389"/><path d="M53.375 21.58a1.236 1.236 0 00-1.393-.805l-9.675 1.81a4.626 4.626 0 00-1.462 8.552l.461.267a4.633 4.633 0 002.48.608 10.287 10.287 0 01-3.766 1.923 1.237 1.237 0 00-.298 2.265l6.43 3.71a1.237 1.237 0 001.813-1.391 10.278 10.278 0 01-.217-4.222 4.614 4.614 0 001.765 1.842l.462.267a4.624 4.624 0 006.677-5.543l-3.277-9.283zM45.15 36.478l-1.956-1.126a12.792 12.792 0 002.074-1.331 12.716 12.716 0 00-.118 2.456zm8.997-3.001a2.155 2.155 0 01-2.94.786l-.46-.266a2.142 2.142 0 01-.853-.91l-1.522-3.077a1.207 1.207 0 00-.11-.16 1.124 1.124 0 00-.093-.132 1.243 1.243 0 00-.636-.371.884.884 0 00-.112-.008 1.119 1.119 0 00-.238-.02l-3.43.221a2.172 2.172 0 01-1.215-.284l-.461-.266a2.152 2.152 0 01.68-3.978l8.635-1.616 2.915 8.286a2.153 2.153 0 01-.16 1.795z" fill="#87E389"/></svg>