<svg width="18" height="19" fill="none" xmlns="http://www.w3.org/2000/svg"><g fill="#8C91BA"><path d="M17.708 8.242a11.141 11.141 0 00-3.784-3.098A10.917 10.917 0 008.86 3.99c-1.68.02-3.289.407-4.784 1.154A11.141 11.141 0 00.292 8.242a1.376 1.376 0 000 1.695 11.14 11.14 0 003.784 3.099 10.917 10.917 0 005.063 1.154c1.68-.02 3.289-.408 4.785-1.154a11.142 11.142 0 003.784-3.099 1.377 1.377 0 000-1.695zM4.403 12.38A10.405 10.405 0 01.869 9.487a.645.645 0 010-.794 10.326 10.326 0 014.723-3.397A5.09 5.09 0 003.897 9.09a5.09 5.09 0 001.696 3.794c-.405-.142-.802-.31-1.19-.504zM9 13.46c-2.41 0-4.37-1.96-4.37-4.37S6.59 4.72 9 4.72s4.37 1.96 4.37 4.37-1.96 4.37-4.37 4.37zm8.13-3.973a10.311 10.311 0 01-4.722 3.396 5.09 5.09 0 00-.001-7.588 10.33 10.33 0 014.724 3.398.645.645 0 010 .794z"/><path d="M9 7.22c-1.031 0-1.87.839-1.87 1.87 0 1.031.839 1.87 1.87 1.87 1.031 0 1.87-.839 1.87-1.87 0-1.031-.839-1.87-1.87-1.87zm0 3.008A1.14 1.14 0 017.862 9.09a1.14 1.14 0 012.276 0A1.14 1.14 0 019 10.228z"/></g></svg>