<svg viewBox="0 0 33 34" fill="none" xmlns="http://www.w3.org/2000/svg"><path d="M16.5 33.089c9.113 0 16.5-7.387 16.5-16.5S25.613.089 16.5.089 0 7.476 0 16.589s7.387 16.5 16.5 16.5z" fill="#DC4E41"/><path d="M5.745 17.329c-.059 2.839 1.897 5.548 4.586 6.431 2.534.852 5.65.215 7.335-1.955 1.231-1.52 1.51-3.547 1.378-5.44-2.17-.02-4.34-.014-6.507-.01-.003.773 0 1.543.004 2.316 1.299.035 2.598.019 3.897.045-.328 1.124-1.075 2.17-2.208 2.576-2.19.965-4.983-.296-5.672-2.592-.831-2.2.53-4.853 2.777-5.493 1.394-.49 2.83.062 4.022.786.604-.565 1.17-1.17 1.725-1.78-1.355-1.133-3.096-1.829-4.886-1.676-3.511.042-6.584 3.284-6.451 6.792zm17.522-2.924c-.007.646-.014 1.296-.017 1.942-.65.006-1.296.01-1.942.013v1.936c.646.003 1.296.006 1.942.013.006.646.006 1.293.013 1.942.643 0 1.29-.003 1.936 0 .003-.65.006-1.296.013-1.945l1.943-.01V16.36c-.647-.003-1.296-.006-1.943-.013-.003-.646-.01-1.296-.013-1.942h-1.933z" fill="#DC4E41"/><path d="M5.745 17.328c-.133-3.508 2.94-6.75 6.45-6.792 1.79-.152 3.532.543 4.886 1.676a30.877 30.877 0 01-1.724 1.78c-1.193-.724-2.628-1.276-4.022-.786-2.248.64-3.609 3.294-2.777 5.493.689 2.296 3.482 3.557 5.671 2.592 1.134-.406 1.881-1.452 2.21-2.576-1.3-.026-2.6-.01-3.899-.045-.003-.773-.006-1.543-.003-2.316 2.167-.004 4.336-.01 6.506.01.133 1.893-.146 3.92-1.377 5.44-1.686 2.17-4.801 2.807-7.335 1.956-2.69-.884-4.645-3.593-4.586-6.432zm17.522-2.923h1.932c.003.646.01 1.296.013 1.942.646.006 1.296.01 1.943.013v1.936l-1.943.01c-.006.65-.01 1.295-.013 1.945-.646-.003-1.293 0-1.936 0-.006-.65-.006-1.296-.013-1.942-.646-.007-1.296-.01-1.942-.014V16.36c.646-.003 1.293-.006 1.942-.012.003-.646.01-1.296.017-1.943z" fill="#fff"/></svg>