<svg width="6" height="10" fill="none" xmlns="http://www.w3.org/2000/svg"><path d="M2.092 6.688c.008-.465.06-.833.158-1.102.098-.27.297-.568.598-.897l.767-.79c.328-.372.492-.77.492-1.196 0-.41-.107-.73-.322-.96-.215-.235-.527-.352-.937-.352-.399 0-.72.105-.961.316-.242.211-.364.494-.364.85H.44c.008-.633.233-1.143.674-1.53C1.56.637 2.137.441 2.848.441c.738 0 1.312.2 1.722.598.414.395.621.938.621 1.629 0 .684-.316 1.357-.949 2.021l-.638.633c-.286.317-.428.772-.428 1.365H2.092zm-.047 1.857c0-.176.053-.322.158-.44.11-.12.27-.181.48-.181.212 0 .372.06.481.181a.62.62 0 01.164.44.62.62 0 01-.164.44c-.11.113-.27.17-.48.17-.211 0-.372-.057-.48-.17a.632.632 0 01-.16-.44z" fill="#8C91BA"/></svg>